<?xml version="1.0" encoding="UTF-8" standalone="no"?>
<svg
   xmlns:dc="http://purl.org/dc/elements/1.1/"
   xmlns:cc="http://creativecommons.org/ns#"
   xmlns:rdf="http://www.w3.org/1999/02/22-rdf-syntax-ns#"
   xmlns:svg="http://www.w3.org/2000/svg"
   xmlns="http://www.w3.org/2000/svg"
   xmlns:sodipodi="http://sodipodi.sourceforge.net/DTD/sodipodi-0.dtd"
   xmlns:inkscape="http://www.inkscape.org/namespaces/inkscape"
   width="175.22499mm"
   height="89.857491mm"
   viewBox="0 0 175.22499 89.857491"
   version="1.1"
   id="svg8"
   inkscape:version="1.0.2-2 (e86c870879, 2021-01-15)"
   sodipodi:docname="trace1.svg">
  <defs
     id="defs2" />
  <sodipodi:namedview
     id="base"
     pagecolor="#ffffff"
     bordercolor="#666666"
     borderopacity="1.0"
     inkscape:pageopacity="0.0"
     inkscape:pageshadow="2"
     inkscape:zoom="0.81454783"
     inkscape:cx="166.66343"
     inkscape:cy="270.34062"
     inkscape:document-units="mm"
     inkscape:current-layer="layer1"
     inkscape:document-rotation="0"
     showgrid="false"
     inkscape:window-width="1748"
     inkscape:window-height="1051"
     inkscape:window-x="163"
     inkscape:window-y="-9"
     inkscape:window-maximized="1" />
  <metadata
     id="metadata5">
    <rdf:RDF>
      <cc:Work
         rdf:about="">
        <dc:format>image/svg+xml</dc:format>
        <dc:type
           rdf:resource="http://purl.org/dc/dcmitype/StillImage" />
        <dc:title></dc:title>
      </cc:Work>
    </rdf:RDF>
  </metadata>
  <g
     inkscape:label="Layer 1"
     inkscape:groupmode="layer"
     id="layer1"
     transform="translate(-11.896649,-87.322708)">
    <path
       style="fill:#000000;stroke-width:0.158848"
       d="m 97.090168,177.02992 c -0.567881,-0.0659 -1.711583,-0.21132 -2.541562,-0.32323 -0.829978,-0.11191 -2.545533,-0.21796 -3.812343,-0.23568 -4.597991,-0.0643 -7.09224,-1.19425 -9.889488,-4.48016 -0.556326,-0.65351 -0.66516,-0.64571 -1.131607,0.0811 -1.51006,2.35295 -4.110726,3.01914 -6.816233,1.74606 -1.233635,-0.58049 -1.238654,-0.58136 -1.509052,-0.26041 -1.968393,2.3364 -6.55713,2.86471 -8.776525,1.01046 -0.451974,-0.37762 -0.850445,-0.55016 -1.459094,-0.63181 -0.460524,-0.0618 -1.201621,-0.28314 -1.646882,-0.49191 -1.030414,-0.48314 -1.434629,-0.47757 -2.181643,0.03 -1.303239,0.88558 -3.752316,0.72592 -5.583778,-0.36401 -1.376567,-0.81922 -1.26461,-0.82966 -2.941465,0.27434 -1.769708,1.16512 -4.290231,0.92519 -6.088109,-0.57953 -0.637152,-0.53327 -0.980662,-0.47944 -2.80264,0.43917 -3.356217,1.69215 -6.789512,0.21352 -7.023762,-3.02496 -0.09824,-1.3582 -1.470243,-1.65546 -5.436189,-1.17782 -1.488801,0.1793 -2.769116,0.0343 -4.303189,-0.48725 -0.611562,-0.20793 -1.360661,-0.43114 -1.664662,-0.496 -2.67383,-0.57056 -6.725326,-3.74263 -7.926418,-6.20589 -1.514867,-3.10677 -1.679804,-3.82485 -1.657008,-7.21399 0.03025,-4.49702 2.052438,-8.23309 5.688422,-10.50956 2.3516,-1.47233 2.607108,-1.58426 4.14295,-1.81499 2.473762,-0.37162 3.402312,-0.91506 3.402312,-1.99122 0,-2.41713 2.059942,-5.47655 3.454754,-5.131 0.756863,0.18751 0.807006,0.49331 0.205085,1.25074 -1.526638,1.92102 -1.591212,5.79266 -0.06889,4.13067 1.115512,-1.21786 2.771249,-0.65025 3.474921,1.19123 0.59155,1.54807 0.971908,1.84589 4.132892,3.23606 2.337776,1.02813 2.64401,1.10912 3.411946,0.90233 0.865206,-0.23298 1.091866,-0.69982 0.720118,-1.48323 -0.40518,-0.85385 -0.641776,-0.97799 -1.898915,-0.9963 -1.969824,-0.0287 -3.252514,-1.27928 -2.813854,-2.7434 0.268211,-0.8952 0.250179,-0.94008 -0.523984,-1.30398 -0.740738,-0.34818 -1.99284,-1.57027 -1.99284,-1.94506 0,-0.54434 0.386565,-1.22079 0.961799,-1.68306 0.713964,-0.57375 0.752628,-0.80386 0.308982,-1.83884 -0.575394,-1.34235 -0.296684,-2.46214 0.612809,-2.46214 0.501793,0 1.031389,-0.85601 1.22844,-1.9856 0.483392,-2.77102 0.878344,-3.74634 1.955608,-4.82928 0.445347,-0.4477 0.809723,-0.94011 0.809723,-1.09426 0,-1.4621 1.726488,-1.20571 2.470437,0.36687 0.57196,1.20903 0.864529,1.33328 1.697311,0.72084 1.551606,-1.14106 2.607221,-0.26438 2.396144,1.98996 -0.236592,2.52688 2.116783,2.45155 2.899655,-0.0928 0.619184,-2.01236 1.281422,-3.67532 2.049675,-5.14698 0.314787,-0.60301 0.77309,-1.56801 1.018453,-2.14445 0.441523,-1.03728 1.902818,-3.66455 2.649046,-4.76272 0.212488,-0.3127 0.386344,-0.62596 0.386344,-0.69611 0,-0.0702 0.589721,-0.84144 1.310493,-1.71396 0.720771,-0.87252 1.617006,-1.97489 1.99163,-2.44972 0.782451,-0.99174 3.068591,-2.92954 6.375574,-5.40415 0.233508,-0.17473 1.028678,-0.79046 1.767046,-1.36829 0.73837,-0.57783 1.592675,-1.17814 1.898456,-1.33404 0.305782,-0.15589 0.770411,-0.4438 1.03251,-0.6398 0.559127,-0.41813 2.767371,-1.502719 3.059557,-1.502719 0.110774,0 0.903666,-0.682972 1.761984,-1.517718 1.310392,-1.274403 3.835848,-3.08886 4.299231,-3.08886 0.0534,0 0.346219,-0.132959 0.650708,-0.295464 0.304486,-0.162505 0.732318,-0.34919 0.950733,-0.414848 0.218415,-0.06566 0.869835,-0.324146 1.4476,-0.574403 2.894226,-1.25363 10.721467,-2.001254 12.090943,-1.154869 0.300276,0.185581 0.807627,-0.191961 1.511059,-1.124431 1.435292,-1.902629 3.66034,-3.418088 5.521164,-3.760403 3.95247,-0.727092 7.4899,2.491358 4.0459,3.681064 -1.42586,0.49255 -3.6844,3.24311 -2.40965,2.934581 0.23583,-0.05711 0.82192,-0.304222 1.30244,-0.549195 2.20709,-1.125234 3.47484,-1.318335 5.78208,-0.880704 3.34774,0.634988 3.15848,0.565976 5.04329,1.83911 0.46745,0.315757 1.02322,0.762514 1.23502,0.992793 0.41834,0.454839 0.9677,0.533413 1.70929,0.244478 0.51101,-0.199098 2.22249,-0.526997 4.69021,-0.898588 1.46935,-0.221258 1.90532,-0.228222 3.1958,-0.05103 0.8219,0.112839 1.7003,0.160096 1.95203,0.105012 1.65192,-0.36149 8.18259,1.106 8.70844,1.95685 0.0591,0.09559 0.72609,0.469076 1.48225,0.82998 0.75615,0.360897 1.71884,0.892816 2.1393,1.182044 0.42047,0.289228 0.89286,0.566613 1.04977,0.616414 0.15689,0.04983 0.52163,0.405992 0.81049,0.791526 0.28888,0.38554 0.68311,0.74061 0.87607,0.78904 0.98503,0.24723 3.92436,3.67701 5.73087,6.68713 1.10516,1.84148 1.8192,3.19389 1.82175,3.45041 7.5e-4,0.1117 0.20825,0.60971 0.46032,1.1067 0.30646,0.6042 0.51905,1.35998 0.6416,2.28092 0.10081,0.75751 0.28257,1.63755 0.4039,1.95564 0.47297,1.23993 0.74332,2.72969 0.86212,4.7507 0.14888,2.5328 0.0193,2.37932 1.72166,2.03847 4.16214,-0.83332 4.42627,-0.8234 6.89862,0.25915 0.85057,0.37244 2.38927,-0.0357 2.59652,-0.68871 0.15332,-0.48306 -0.91501,-2.48989 -1.97833,-3.71625 -0.58449,-0.67412 -1.05261,-1.39338 -1.18888,-1.82675 -0.12362,-0.39315 -0.44606,-1.28666 -0.71652,-1.9856 -0.79515,-2.05487 -1.12705,-5.49493 -0.62416,-6.46939 0.36858,-0.71422 1.32873,-0.6637 1.43369,0.0754 0.0279,0.19676 0.15803,0.35775 0.28908,0.35775 0.32891,0 0.40597,-0.69091 0.0906,-0.81194 -0.29869,-0.11461 -0.33052,-0.74975 -0.0493,-0.98315 0.53319,-0.44251 2.07174,-0.39528 2.81798,0.0865 0.39314,0.25382 0.9119,0.58323 1.15277,0.73203 3.89063,2.40335 4.3732,10.43248 0.89292,14.85694 -0.41322,0.52533 -0.37338,0.89256 0.13846,1.2763 0.24026,0.18012 0.52199,0.39865 0.62607,0.48563 0.10408,0.087 0.48116,0.27493 0.83795,0.41769 0.68538,0.27423 1.63238,1.63358 2.05956,2.95634 0.10478,0.32451 0.50632,0.99669 0.89227,1.49373 0.38596,0.49703 0.74987,1.16078 0.80871,1.47499 0.0588,0.31421 0.21368,0.82147 0.34411,1.12726 0.4201,0.98497 0.32613,3.65029 -0.18074,5.12617 -0.23317,0.67893 -0.42394,1.37443 -0.42394,1.54555 0,0.45304 -0.47609,1.59113 -0.90464,2.16253 -0.55084,0.73446 -0.22367,0.92195 0.90576,0.51906 1.41353,-0.50422 2.66365,-0.5627 3.41545,-0.15977 1.25307,0.67161 1.91371,0.31962 3.24345,-1.72802 1.18459,-1.82417 1.42659,-2.06581 2.05574,-2.05262 1.89076,0.0396 2.9031,1.56429 1.81907,2.73969 -0.51774,0.56139 -1.32168,1.7257 -1.32168,1.91414 0,0.0669 -0.21444,0.43338 -0.47654,0.81432 -0.81628,1.18644 -0.64163,1.4205 1.2938,1.7338 2.05916,0.33334 2.77986,0.77471 4.95023,3.03163 1.65629,1.72234 2.24033,4.82678 1.5163,8.05992 -0.18117,0.80902 -0.41671,1.89987 -0.52342,2.42412 -0.30326,1.48973 -0.77967,2.22598 -2.56966,3.97109 -1.69173,1.6493 -2.15583,1.9723 -3.76146,2.61784 -0.80397,0.32323 -1.74944,0.73533 -2.10105,0.91577 -1.06104,0.54452 -2.37569,0.71908 -4.62307,0.61385 -1.12454,-0.0527 -2.63309,-0.0904 -3.35232,-0.084 -1.50785,0.0136 -2.39078,-0.43255 -2.78618,-1.4077 -0.25181,-0.62103 -1.59046,-0.0748 -2.6785,1.09291 -0.5299,0.56869 -0.64737,0.62017 -1.42963,0.62657 -0.46877,0.004 -1.10249,0.10454 -1.40827,0.22379 -1.72359,0.67216 -2.58337,0.95435 -4.68601,1.53802 -0.34946,0.097 -0.97627,0.28102 -1.39291,0.40892 -0.92598,0.28425 -4.25987,0.91446 -6.70832,1.26809 -0.34946,0.0505 -0.71717,0.15606 -0.81712,0.23465 -0.1,0.0786 -0.56459,0.18023 -1.03252,0.22585 -0.46792,0.0456 -1.45751,0.19515 -2.19909,0.33227 -1.28045,0.23676 -2.61313,0.22077 -4.08393,-0.049 -0.44714,-0.082 -0.60887,7.6e-4 -1.35021,0.69188 -1.77949,1.65867 -2.19694,1.84953 -4.27747,1.95571 -1.77378,0.0905 -1.87212,0.11434 -2.48821,0.60228 -2.11538,1.67542 -5.31775,1.74815 -7.62294,0.17314 -0.81898,-0.55957 -0.74103,-0.55624 -1.8231,-0.0777 -2.0901,0.92434 -5.82738,0.47668 -7.39094,-0.88531 -0.54158,-0.47176 -1.2329,-0.58928 -1.77136,-0.3011 -0.15766,0.0844 -0.6712,0.21932 -1.1412,0.29986 -0.47,0.0806 -1.36786,0.33193 -1.99524,0.55862 -0.62901,0.22728 -1.84037,0.48997 -2.70042,0.5856 -1.87693,0.20868 -3.20962,0.61732 -4.78543,1.4673 -1.07258,0.57854 -3.857424,1.15149 -5.034354,1.03575 -0.0874,-0.009 -0.623477,-0.0695 -1.191358,-0.13537 z m 3.934682,-1.83075 c 3.86857,-1.11574 6.19081,-2.52391 6.95426,-4.21695 0.33981,-0.75355 -0.22708,-1.44645 -1.88432,-2.30316 -0.98197,-0.50762 -3.50035,-2.76308 -4.03633,-3.61492 -1.78706,-2.84024 -3.340476,-3.26935 -6.537573,-1.80589 -0.476217,0.21799 -1.202688,0.34925 -2.303291,0.41616 -1.872153,0.11383 -2.008162,0.33916 -1.36532,2.26197 1.216737,3.63942 1.874789,4.00104 4.157791,2.28488 0.524002,-0.3939 1.03836,-0.71618 1.143027,-0.71618 0.10466,0 0.472858,-0.29499 0.8182,-0.65553 1.24973,-1.30468 2.603796,-1.91903 2.844906,-1.29073 0.10892,0.28384 -0.27089,0.69246 -1.556946,1.67504 -1.25671,0.96016 -0.32783,1.47379 2.404846,1.32976 1.49735,-0.0789 1.80902,-0.0558 1.88424,0.14028 0.39005,1.01647 -3.47247,1.54942 -5.604796,0.77335 -1.114146,-0.4055 -3.017545,0.18066 -4.168259,1.28365 -0.871819,0.83566 3.038751,2.04019 6.393225,1.96925 2.23926,-0.0474 2.66529,0.0687 1.95232,0.53169 -1.84768,1.19996 -7.784932,0.38257 -9.616656,-1.32395 -0.404242,-0.37661 -0.363698,-0.37911 -2.879844,0.17767 -2.357685,0.5217 -2.835274,0.56113 -2.956953,0.24403 -0.155373,-0.4049 0.126807,-0.58277 1.153531,-0.7271 0.999538,-0.14052 2.672076,-0.64712 3.514794,-1.06461 0.850038,-0.42112 0.831723,-0.82795 -0.118014,-2.62144 -0.950809,-1.79552 -1.163538,-3.09811 -0.696561,-4.26521 0.906341,-2.26516 -2.227266,-3.47104 -5.287816,-2.03487 -0.536687,0.25184 -1.047845,0.4579 -1.135905,0.4579 -0.08806,0 -0.578212,0.31171 -1.089225,0.69269 -0.51101,0.38098 -1.079185,0.77088 -1.262606,0.86645 -0.197127,0.10271 -0.476525,0.56604 -0.683282,1.13308 -0.55941,1.53425 -1.562186,1.60332 -1.373686,0.0946 0.123113,-0.98536 0.01382,-1.11223 -1.081259,-1.25511 -0.741922,-0.0968 -2.019952,-0.93452 -2.592299,-1.69919 -0.102662,-0.13716 -0.460069,-0.43985 -0.794238,-0.67265 -0.914096,-0.6368 -2.53396,-3.94758 -2.697643,-5.51361 -0.214106,-2.04846 0.442816,-4.98864 1.093957,-4.89623 0.358413,0.0509 0.360716,0.0679 0.360716,2.67218 0,2.62098 0,2.62098 0.873662,4.26826 1.541181,2.90588 2.186268,2.70146 1.188088,-0.3765 -1.138521,-3.51071 -0.408114,-8.94834 1.589106,-11.83033 0.219867,-0.31727 0.399758,-0.62979 0.399758,-0.69448 0,-0.12415 1.270927,-1.88991 1.989492,-2.76409 0.452329,-0.55029 0.869765,-1.71667 0.869765,-2.43025 0,-0.67893 0.492007,-1.1922 0.922142,-0.962 1.070644,0.57299 0.362948,2.75552 -1.593087,4.91308 -1.405615,1.55042 -3.04651,5.32312 -3.230015,7.42636 -0.316798,3.63096 1.139776,8.3207 1.669495,5.37528 0.07724,-0.42949 0.26267,-1.20978 0.412064,-1.73398 0.149395,-0.52419 0.43793,-1.6679 0.641191,-2.54156 1.331331,-5.72239 4.137722,-10.12774 8.013364,-12.57904 0.526365,-0.33292 1.294619,-0.83617 1.70723,-1.11834 1.164425,-0.79629 1.966313,-1.14757 2.628307,-1.15138 0.637429,-0.004 0.791207,0.36792 0.266337,0.64356 -3.410096,1.79081 -4.793138,2.73767 -5.93946,4.0663 -0.51467,0.59653 -1.069368,1.1785 -1.232666,1.29327 -0.276202,0.19414 -1.252029,1.55042 -1.666207,2.31583 -0.694411,1.28329 -2.281,5.82736 -2.281,6.53291 0,0.22752 -0.186526,0.80797 -0.414503,1.28987 -0.286894,0.60645 -0.38582,1.0196 -0.321336,1.34202 0.05124,0.2562 -0.01511,1.03661 -0.147445,1.73423 -0.430816,2.27107 -0.142673,2.34287 1.810039,0.45104 1.265056,-1.22563 1.949861,-1.64646 6.141964,-3.77445 2.40026,-1.21841 5.796565,-1.26753 7.151317,-0.10343 0.909071,0.78114 3.009231,0.87071 4.335451,0.18489 0.859706,-0.44456 1.817006,-0.47242 2.730506,-0.0794 0.84162,0.36206 0.84162,0.36206 1.14994,-0.0252 0.83759,-1.05201 1.86774,-2.63127 1.86774,-2.86331 0,-0.84528 4.32536,-3.53276 6.61959,-4.11297 0.98979,-0.25031 0.99108,-0.59919 0.007,-1.75047 -0.9396,-1.09867 -3.10962,-2.54156 -3.82238,-2.54156 -0.0962,0 -0.66491,-0.19226 -1.26385,-0.42725 -1.03795,-0.40723 -1.14064,-0.4184 -2.19103,-0.23827 -0.60612,0.10394 -1.58323,0.18942 -2.17132,0.18996 -0.68726,6.3e-4 -1.23953,0.0937 -1.54582,0.26044 -0.91916,0.50048 -2.227486,1.12541 -2.602436,1.24309 -1.426499,0.4477 -4.781027,3.68677 -5.734771,5.53739 -0.611859,1.18723 -1.160469,1.23818 -1.487154,0.13812 -0.808094,-2.72115 -2.234852,-4.26343 -4.264653,-4.60994 -0.98847,-0.16875 -0.955128,-0.64333 0.06751,-0.96092 1.452542,-0.45108 2.840397,0.31854 4.184847,2.3207 0.994084,1.48039 1.059073,1.46592 2.713401,-0.60399 1.56172,-1.95404 3.97763,-3.62563 5.26239,-3.64111 0.11228,-0.001 0.36247,-0.10434 0.55597,-0.22887 1.573616,-1.01268 6.691186,-1.347 8.084206,-0.52811 0.4087,0.24025 0.85297,0.43683 0.98725,0.43683 1.32038,0 4.08622,1.98881 4.86002,3.49465 0.57237,1.11384 0.73633,1.17558 2.51885,0.94842 1.20773,-0.15392 1.74644,-0.1583 2.30072,-0.0188 1.95879,0.49322 2.60767,0.14125 2.18269,-1.18398 -0.0812,-0.25329 -0.19584,-0.9609 -0.25471,-1.57247 -0.10338,-1.07405 -0.13499,-1.13993 -0.92794,-1.93374 -1.73564,-1.73755 -2.78855,-0.84005 -1.28501,1.09534 0.90094,1.1597 1.52582,2.48532 1.33747,2.83725 -0.23426,0.43772 -0.37916,0.38474 -0.96263,-0.35197 -0.95489,-1.20564 -1.24091,-1.64019 -1.7367,-2.63857 -0.47448,-0.95546 -2.53219,-3.21777 -2.92676,-3.21777 -0.0925,0 -0.63201,-0.31118 -1.19896,-0.69152 -0.56694,-0.38032 -1.20952,-0.74222 -1.42793,-0.80421 -0.21841,-0.062 -0.54008,-0.17524 -0.71481,-0.25166 -1.19983,-0.52475 -6.24271,-1.41698 -7.15134,-1.26528 -0.52244,0.0872 -2.23708,0.36893 -3.810316,0.626 -1.57323,0.25706 -3.157737,0.57229 -3.521111,0.7005 -0.36338,0.1282 -1.006184,0.28326 -1.428457,0.34455 -0.422274,0.0613 -0.900537,0.18041 -1.062808,0.26471 -0.482618,0.25069 -0.716915,-0.12618 -0.323204,-0.51989 0.440086,-0.44009 2.975451,-1.37345 4.299947,-1.58297 0.596043,-0.0943 1.493173,-0.27674 1.993603,-0.40545 2.418296,-0.62197 5.797496,-0.84851 6.873646,-0.46081 0.34947,0.1259 0.85511,0.22998 1.12365,0.23129 0.46322,0.002 2.15973,0.47576 3.7212,1.03859 1.05857,0.38155 2.40971,1.09348 3.3298,1.75449 0.44754,0.32153 0.85159,0.54672 0.89789,0.50042 0.2529,-0.2529 0.11885,-1.98588 -0.20544,-2.65571 -0.19037,-0.39313 -0.42254,-1.0078 -0.51596,-1.36591 -0.27955,-1.07158 -0.79851,-1.6906 -1.68355,-2.00813 -0.43465,-0.15595 -1.11194,-0.41832 -1.50508,-0.58307 -0.39316,-0.16475 -1.03649,-0.38312 -1.42963,-0.48527 -0.39315,-0.10214 -0.96501,-0.26487 -1.27079,-0.36163 -0.99723,-0.31554 -3.68157,-0.16108 -4.64201,0.26711 -1.63177,0.72747 -2.6103,0.69314 -4.08442,-0.14331 -2.081356,-1.18101 -3.823353,-1.20419 -6.52293,-0.0868 -1.092077,0.45202 -2.485965,0.95306 -3.097529,1.11342 -0.611562,0.16035 -1.313159,0.36894 -1.559104,0.46353 -0.666986,0.25652 -1.318937,0.20937 -2.014963,-0.14572 -1.020849,-0.52079 -1.41846,-0.4082 -3.61396,1.02335 -2.124043,1.38497 -3.338161,2.93614 -3.612801,4.61575 -0.180938,1.10657 -0.787161,1.95736 -1.47293,2.06717 -1.976715,0.31652 -2.962038,2.08896 -2.310426,4.15611 0.362109,1.14874 0.193491,1.61218 -0.750953,2.06395 -1.172785,0.56099 -2.14836,1.7303 -2.375803,2.84758 -0.104975,0.51568 -0.329216,1.35369 -0.498316,1.86224 -0.290342,0.87319 -0.690779,3.13532 -0.884726,4.99798 -0.19083,1.83274 0.960061,4.72197 3.060704,7.68367 0.695383,0.98043 3.547045,3.77219 4.192246,4.10419 0.566642,0.29158 1.27388,0.96425 1.534763,1.45975 2.077825,3.94644 6.895594,6.52291 12.291868,6.57346 1.616274,0.0152 3.617753,0.10062 4.447733,0.18993 1.791331,0.19276 2.706721,0.14383 3.934687,-0.21032 z M 86.530544,170.5618 c -0.926196,-0.70565 -1.447646,-1.42442 -1.688501,-2.32745 -0.09533,-0.35742 -0.273495,-0.83958 -0.395927,-1.07147 -0.470322,-0.89083 0.145081,-1.9594 0.730481,-1.2684 0.174733,0.20626 0.317695,0.53213 0.317695,0.72417 0,0.19204 0.106063,0.48792 0.235696,0.65751 0.12963,0.16959 0.30743,0.56281 0.395109,0.87382 0.08768,0.31101 0.554748,1.02198 1.037934,1.57993 1.254458,1.44856 0.859237,1.96839 -0.632487,0.83189 z m 43.825556,3.65537 c 2.19462,-0.78273 2.1845,-3.32048 -0.0176,-4.42166 -0.98272,-0.49142 -2.32497,-0.25757 -2.96969,0.51738 -0.18472,0.22203 -0.56816,0.67264 -0.8521,1.00135 -1.54436,1.78785 1.18336,3.85024 3.83942,2.90293 z m -62.120687,-0.36236 c 1.322488,-0.40847 1.53234,-0.62113 1.535399,-1.55594 0.0039,-1.19245 0.640483,-1.64591 1.360712,-0.96929 0.344145,0.3233 0.423696,0.33807 0.783594,0.14546 0.368928,-0.19745 0.441112,-0.17612 0.913949,0.27003 1.883449,1.77714 5.045603,1.1995 5.143708,-0.93961 0.02115,-0.46103 0.08769,-1.08086 0.147875,-1.37739 0.250617,-1.23475 -1.080726,-1.50641 -1.790094,-0.36527 -0.892908,1.43639 -3.760532,2.45371 -5.209703,1.84821 -0.656882,-0.27446 -1.901029,-0.19553 -3.000633,0.19035 -0.340604,0.11954 -1.243786,0.21606 -2.021644,0.21606 -1.592015,0 -1.836347,0.16986 -2.000063,1.39046 -0.172801,1.28833 1.857075,1.85111 4.1369,1.14693 z m 54.002827,-0.49222 c 1.67207,-0.86117 0.99915,-2.3286 -0.71779,-1.56525 -0.20068,0.0892 -1.11543,0.21432 -2.03277,0.27798 -2.76737,0.19206 -2.45138,1.08151 0.46316,1.30369 0.83733,0.0639 1.61648,0.12646 1.73143,0.13917 0.11495,0.0127 0.36514,-0.0573 0.55597,-0.15559 z m -11.91283,-0.6857 c 0.19042,-0.12192 0.6468,-0.30087 1.01417,-0.39766 1.3701,-0.36095 1.40065,-0.7889 0.0964,-1.35025 -0.97521,-0.41973 -1.36173,-0.25521 -2.11162,0.89885 -0.83721,1.28845 -0.34167,1.70875 1.00104,0.84906 z m -62.293467,-0.50505 c 1.688231,-0.84925 1.981047,-2.96937 0.492355,-3.56487 -0.503338,-0.20134 -1.270843,-0.60259 -1.705567,-0.89168 -0.790408,-0.52561 -0.790408,-0.52561 -1.588477,0.2573 -0.438937,0.43061 -1.012512,0.83512 -1.274611,0.89894 -0.262098,0.0638 -0.762468,0.24552 -1.111932,0.4038 -3.263816,1.47829 -7.065344,-2.34176 -5.499787,-5.52658 0.25135,-0.51133 0.502943,-1.07977 0.559099,-1.26322 0.05616,-0.18346 0.493838,-0.70743 0.972629,-1.16439 1.373668,-1.31103 1.188018,-1.45832 -1.013661,-0.80426 -0.880217,0.26149 -1.821803,0.47544 -2.092411,0.47544 -1.140295,0 -1.824075,0.88428 -1.768667,2.28727 0.04332,1.09699 0.174802,1.29116 1.456385,2.15082 1.088012,0.72983 1.090056,1.03425 0.01379,2.05318 -1.611624,1.52576 -1.448786,3.49576 0.382509,4.62756 1.087665,0.67221 4.113325,-0.0301 5.435225,-1.26166 1.310882,-1.22127 1.965362,-1.23553 2.541815,-0.0554 0.782893,1.60282 2.581401,2.19259 4.20131,1.37771 z m 88.010657,0.25052 c 1.32331,-0.36752 1.94524,-1.36997 1.11686,-1.8002 -0.24025,-0.12477 -0.5917,-0.43731 -0.78099,-0.69453 -1.08176,-1.47001 -2.61592,-0.88291 -2.72473,1.04271 -0.0893,1.57988 0.54353,1.96452 2.38886,1.45202 z m -79.937159,-0.16625 c 1.534699,-0.32914 2.122646,-3.5556 0.649737,-3.56554 -0.399914,-0.003 -1.356687,-0.10675 -2.12616,-0.23122 -1.516529,-0.24533 -1.69103,-0.20497 -2.228949,0.51552 -1.384387,1.85423 0.905219,3.88176 3.705372,3.28124 z m 5.990714,-0.34301 c 0.661738,-0.72653 0.712259,-0.9861 0.416899,-2.142 -0.453709,-1.77561 -0.80642,-1.98835 -2.258105,-1.36198 -0.748342,0.32289 -0.991301,0.51552 -1.121592,0.88928 -0.5799,1.66351 1.86441,3.82063 2.962798,2.6147 z m 58.503445,-1.49475 c 0.13106,-0.0437 1.26131,-0.24814 2.51168,-0.45446 1.73096,-0.28562 2.44975,-0.47846 3.01249,-0.80825 3.94402,-2.31136 6.02023,-3.08019 8.31794,-3.08019 4.46235,0 7.05094,-0.83982 7.93681,-2.57494 0.63487,-1.24349 0.31356,-1.8728 -0.95621,-1.8728 -1.34228,0 -1.61913,-1.55941 -0.33809,-1.90436 2.95537,-0.79579 -1.35816,-5.22248 -5.35547,-5.49596 -2.80321,-0.19178 -5.18604,-1.25459 -7.26619,-3.24094 -1.23267,-1.17709 -3.50794,-2.54308 -4.23589,-2.54308 -0.29605,0 -0.68963,-0.10602 -0.87462,-0.2356 -0.49626,-0.34759 -2.69059,-0.98718 -3.78495,-1.10322 -0.5242,-0.0556 -1.18306,-0.18374 -1.46414,-0.28481 -1.81054,-0.65101 -10.2752,2.03358 -11.01697,3.49406 -0.12091,0.23807 -0.47906,0.826 -0.79587,1.30652 -1.22217,1.85366 -1.4091,2.16882 -1.74299,2.93867 -0.7451,1.71799 -1.132,6.93192 -0.6151,8.28945 0.0936,0.24595 0.2336,0.78063 0.31101,1.18818 0.4468,2.35213 3.05152,4.29583 7.20242,5.37459 1.23737,0.32157 2.41364,0.67239 2.61391,0.77957 0.75304,0.40301 5.51575,0.56873 6.54023,0.22757 z m -1.16049,-2.04463 c -0.54007,-0.47513 -0.76678,-0.48989 -1.14279,-0.0744 -0.3604,0.39824 -0.76371,0.39664 -1.65234,-0.007 -0.38458,-0.17449 -0.83646,-0.27369 -1.00417,-0.22046 -0.35613,0.11303 -0.91756,-0.32773 -0.91756,-0.72035 0,-0.64898 -0.41732,-0.911 -0.83139,-0.522 -0.51568,0.48446 -0.98158,0.44925 -1.57633,-0.11914 -0.32088,-0.30664 -0.66388,-0.47654 -0.96209,-0.47654 -0.63371,0 -1.02949,-0.23979 -1.31864,-0.79894 -0.15191,-0.29378 -0.36867,-0.47184 -0.57439,-0.47184 -0.18171,0 -0.54277,-0.1787 -0.80234,-0.39712 -0.25957,-0.21841 -0.59979,-0.39711 -0.75604,-0.39711 -0.60106,0 -1.10131,-0.60144 -1.15237,-1.38545 -0.0449,-0.68916 -0.0844,-0.74968 -0.57075,-0.87499 -0.53709,-0.13837 -0.82768,-0.58978 -0.82768,-1.28577 0,-0.19171 -0.14296,-0.43785 -0.31769,-0.54697 -0.5589,-0.34904 -0.39085,-0.78867 0.46779,-1.22378 0.63991,-0.32427 0.88902,-0.58235 1.34423,-1.39259 0.97678,-1.73861 3.42995,-4.08816 3.42995,-3.28507 0,0.28047 -1.06869,1.79784 -1.41616,2.01075 -0.40261,0.24668 -0.859,1.10832 -0.74476,1.40603 0.17913,0.4668 0.72289,0.22179 1.35392,-0.61002 1.02193,-1.34709 1.18142,-1.50369 1.64095,-1.61134 0.52442,-0.12284 0.54448,0.0208 0.10653,0.76309 -0.58157,0.98569 -0.12977,1.15099 1.12454,0.41142 1.17562,-0.69317 1.5532,-0.64741 0.95309,0.11551 -0.17474,0.22213 -0.3177,0.57756 -0.3177,0.78983 0,0.23447 -0.18844,0.54452 -0.48012,0.78995 -0.52034,0.43783 -0.87026,0.97847 -0.72641,1.12231 0.0495,0.0495 0.54855,-0.38001 1.10903,-0.95446 1.16995,-1.19908 1.95576,-1.69628 2.09744,-1.32707 0.0926,0.24121 -0.29558,1.12089 -0.56918,1.28998 -0.088,0.0544 -0.15997,0.20188 -0.15997,0.32777 0,0.37948 0.70875,0.26141 1.12395,-0.18723 0.80445,-0.86926 2.21184,-1.50343 2.21184,-0.99665 0,0.18996 -0.54863,0.92194 -1.86417,2.48714 -0.90666,1.07872 -0.94797,1.17672 -0.61316,1.45458 0.39942,0.3315 1.0385,0.011 1.67672,-0.84093 0.8605,-1.1486 2.59398,-2.9588 2.83342,-2.9588 0.42519,0 0.35628,0.49776 -0.19185,1.3858 -1.04508,1.69315 -0.37119,2.01953 1.0183,0.49318 0.81933,-0.90004 1.36393,-0.90526 1.30761,-0.0125 -0.0469,0.7427 0.35959,0.94061 0.90956,0.44289 0.86869,-0.78616 1.87945,-0.76946 1.22293,0.0202 -2.14349,2.57825 -1.983,3.91063 0.21518,1.78626 1.19946,-1.15918 1.66699,-1.47953 1.98258,-1.35843 0.29147,0.11185 0.3058,0.32551 0.041,0.61062 -1.32111,1.42213 -2.18276,2.74664 -2.18356,3.35654 -7.5e-4,0.58112 0.19252,0.50015 0.74466,-0.31195 0.78109,-1.14881 2.69356,-3.07679 3.05207,-3.07679 0.47297,0 0.41491,0.36536 -0.18354,1.15489 -0.65772,0.86772 -1.16642,1.82196 -1.03915,1.94924 0.18031,0.18031 0.76096,-0.25093 1.14097,-0.84738 1.38739,-2.17761 3.1528,-3.07841 1.98789,-1.01433 -0.36406,0.6451 -0.4674,0.99178 -0.39842,1.33665 0.25101,1.25508 -0.66397,2.28246 -1.87149,2.10139 -0.65665,-0.0985 -0.72404,-0.0733 -1.07429,0.40249 -0.39247,0.53306 -0.37314,0.53023 -1.94019,0.28477 -0.32367,-0.0507 -0.51002,0.19705 -0.65033,0.86463 -0.12283,0.58442 -0.6922,0.71325 -1.60744,0.36371 -0.85156,-0.32521 -1.1013,-0.25738 -1.25119,0.33981 -0.2353,0.93751 -0.68521,1.08004 -1.40644,0.44553 z m 0.69275,-5.16224 c 0.36394,-0.19477 0.83829,-1.05204 0.70313,-1.27073 -0.20051,-0.32445 -0.72506,-0.14029 -1.03136,0.36206 -0.53237,0.87316 -0.3822,1.28888 0.32823,0.90867 z m 9.84534,1.44478 c -0.25656,-0.47938 -0.19479,-1.04094 0.16478,-1.49807 0.57345,-0.72901 0.94156,-0.47981 0.94156,0.6374 0,0.71217 -0.24794,1.16792 -0.63538,1.16792 -0.16859,0 -0.38052,-0.13826 -0.47096,-0.30725 z m -23.91419,-7.98029 c -0.16855,-0.43923 0.91073,-2.1964 1.34906,-2.1964 0.51664,0 0.22533,0.75889 -0.70003,1.82359 -0.44329,0.51005 -0.56872,0.5821 -0.64903,0.37281 z m -37.136638,12.63647 c 0.538368,-0.4014 0.854268,-2.18087 0.457581,-2.57756 -0.745743,-0.74575 -3.461229,-0.90468 -4.08307,-0.23898 -0.207546,0.22218 -0.573929,0.50623 -0.814186,0.63123 -0.867095,0.4511 -0.220504,1.71505 1.210441,2.36615 0.760556,0.34608 2.665636,0.23938 3.229234,-0.18084 z m 4.91995,-0.0502 c 1.661808,-0.75452 1.487816,-3.11361 -0.304721,-4.13158 -0.388764,-0.22078 -1.674584,0.11733 -1.721493,0.45268 -0.462779,3.3083 0.198407,4.50878 2.026214,3.6789 z m 70.183298,-0.0892 c 0,-0.24199 -0.13248,-0.3367 -0.55596,-0.39746 -0.5444,-0.0781 -0.55494,-0.0936 -0.50643,-0.74659 0.0965,-1.2984 -0.40766,-1.6183 -1.4423,-0.91524 -1.26738,0.86121 -0.29473,2.49996 1.43862,2.42381 0.94456,-0.0415 1.06607,-0.083 1.06607,-0.36452 z m 2.92503,-0.43683 c 0.24677,-0.65352 -0.54148,-1.46841 -1.02901,-1.0638 -0.29626,0.24588 -0.2894,0.62762 0.0191,1.06817 0.32041,0.45744 0.83632,0.4552 1.00985,-0.005 z m -9.34813,-0.38871 c 0.92768,-0.548 0.54629,-1.12926 -0.54352,-0.82835 -0.60207,0.16624 -0.75994,0.53539 -0.38802,0.9073 0.25276,0.25276 0.38962,0.24116 0.93154,-0.0789 z m -79.201271,-0.38229 c 0.684872,-0.60132 0.68935,-0.70983 0.07039,-1.70553 -0.430089,-0.69187 -0.489818,-0.92683 -0.480787,-1.89133 0.01382,-1.47626 -0.630052,-2.10054 -2.170339,-2.10431 -0.955345,-0.002 -0.55408,-0.7417 0.640375,-1.17995 0.895312,-0.3285 0.941691,-0.5579 0.21364,-1.05677 -1.038977,-0.71192 -1.330788,-1.79105 -0.991217,-3.66555 0.262108,-1.44689 -1.494665,-1.95928 -3.308833,-0.96506 -1.734027,0.95029 -1.573744,3.88734 0.26254,4.81082 0.87309,0.43909 1.242597,0.76509 1.242597,1.0963 0,0.14421 0.178703,0.50444 0.397118,0.80048 0.589228,0.79865 0.39557,1.90617 -0.333307,1.90617 -0.321518,0 -0.699202,0.65604 -0.699202,1.21451 0,0.93724 1.466535,2.11996 2.631425,2.12217 0.909748,0.002 1.648612,0.30567 1.752866,0.72105 0.121998,0.48609 0.09818,0.48926 0.772729,-0.103 z m -15.606397,-0.0835 c 1.180703,-0.16058 1.632024,-0.96644 1.36327,-2.4342 -0.215925,-1.17924 -0.800114,-1.65058 -1.874378,-1.51232 -0.480514,0.0618 -1.374031,0.12468 -1.985595,0.13963 -0.973437,0.0238 -1.826747,0.25909 -1.826747,0.50371 0,1.62092 1.904505,3.70494 3.176952,3.47642 0.218415,-0.0392 0.734339,-0.11719 1.146498,-0.17324 z m 111.006228,-0.22097 c 0.51508,-0.26277 0.62906,-0.40462 0.62906,-0.78288 0,-0.868 -0.6926,-1.2015 -1.434,-0.69052 -1.50192,1.03516 -0.81188,2.29824 0.80494,1.4734 z m -4.55668,-0.3863 c 0.4803,-0.44513 0.53919,-0.96315 0.15743,-1.38499 -0.76714,-0.84768 -1.74128,0.38329 -1.16116,1.46727 0.21942,0.40997 0.49714,0.38721 1.00373,-0.0823 z m -97.650457,0.0433 c 0.06368,-0.10304 0.121512,-0.76424 0.128509,-1.46934 0.01091,-1.09911 0.07504,-1.388 0.449555,-2.02509 0.900817,-1.53239 -0.28028,-2.66569 -2.180514,-2.09226 -2.438429,0.73584 -3.50319,3.36283 -1.925689,4.75108 1.013996,0.89234 3.176532,1.40453 3.528139,0.83561 z m -21.462041,-0.5408 c 1.17204,-0.59848 1.985596,-1.25602 1.985596,-1.60482 0,-0.45664 -0.912975,-0.1611 -2.222479,0.71941 -2.057714,1.38361 -1.899187,1.97615 0.236883,0.88541 z m -6.90987,-0.0865 c 0,-0.0986 -0.257297,-0.4641 -0.571769,-0.81219 -0.314473,-0.34809 -0.690983,-0.89285 -0.836687,-1.21061 -0.379855,-0.82838 -1.117641,-2.06214 -1.685103,-2.81792 -2.956877,-3.93808 -1.950163,-14.01574 1.170073,-11.71296 0.03416,0.0252 -0.305376,0.39085 -0.754526,0.81253 -0.627815,0.58943 -0.816073,0.87502 -0.814204,1.23515 0.005,0.97544 0.194659,1.008 1.571497,0.26989 2.379159,-1.27546 2.976807,-0.82168 0.769073,0.58394 -1.909593,1.21579 -2.343002,1.62159 -2.343002,2.1937 0,0.94461 0.443686,1.03646 1.621198,0.33563 1.400398,-0.8335 3.279149,-1.72336 3.638501,-1.72336 0.678221,0 -0.06606,0.6437 -2.32438,2.01026 -2.179718,1.31899 -2.594217,1.69655 -2.404699,2.19044 0.324499,0.84563 5.22308,-1.91422 6.546238,-3.68813 1.244924,-1.66902 1.224342,-1.94159 -0.146725,-1.94308 -2.902069,-0.003 -3.538972,-1.2378 -1.447959,-2.80688 1.914222,-1.43641 1.983663,-1.49884 1.983663,-1.78321 0,-0.15286 -0.178703,-0.4458 -0.397118,-0.65099 -0.899791,-0.84531 -0.482773,-1.86377 1.255083,-3.06524 2.146319,-1.48385 -1.966756,-2.59759 -4.801019,-1.30003 -0.477823,0.21876 -1.162126,0.44134 -1.520674,0.49462 -5.815106,0.86422 -10.654579,11.38358 -7.566943,16.44796 0.176922,0.29019 0.321943,0.66123 0.32227,0.82453 0.0029,1.42251 3.447726,4.60456 6.149867,5.68064 1.335158,0.53171 2.587345,0.74238 2.587345,0.43531 z m 40.427576,-0.41643 c 1.359494,-1.44551 1.248909,-4.0109 -0.172898,-4.0109 -0.105611,0 -0.473486,-0.33346 -0.817501,-0.74103 -0.62548,-0.74102 -0.62548,-0.74102 -1.922702,-0.44658 -1.444522,0.32786 -1.405973,0.29152 -1.007012,0.94934 0.554504,0.91426 0.667273,1.46576 0.472372,2.31012 -0.405057,1.7548 2.228186,3.23577 3.447741,1.93905 z m 81.583772,-0.0211 c 0.51558,-0.4175 0.21231,-1.1791 -0.43855,-1.1013 -0.57579,0.0688 -0.80365,0.46811 -0.56546,0.99088 0.22151,0.48615 0.50192,0.51699 1.00401,0.11042 z m -117.769649,-0.0553 c 1.897759,-0.83521 4.996345,-3.32717 4.613348,-3.71017 -0.138106,-0.1381 -1.550163,0.52341 -2.183448,1.0229 -0.305782,0.24117 -1.056337,0.71225 -1.6679,1.04684 -1.689945,0.92457 -2.199175,1.34035 -1.973947,1.61173 0.229061,0.27601 0.628528,0.28546 1.211947,0.0287 z m 129.809629,-0.58372 c 0.49175,-0.45936 0.52135,-0.74129 0.13078,-1.24605 -0.41803,-0.54025 -1.86206,0.14162 -1.86206,0.87927 0,0.93264 0.91746,1.12701 1.73128,0.36678 z m -4.76619,-0.47583 c 0.61522,-0.5747 0.33584,-1.60417 -0.43535,-1.60417 -0.32151,0 -1.43804,1.04882 -1.44582,1.35815 -0.0209,0.82839 1.10072,0.97507 1.88117,0.24602 z m 23.45662,0.14027 c 1.34069,-0.34085 3.54064,-1.37838 4.19966,-1.98064 0.21842,-0.1996 0.64731,-0.48531 0.95309,-0.63491 6.08588,-2.97738 5.48121,-14.17153 -0.87716,-16.23879 -1.59371,-0.51815 -1.66607,-0.42626 -1.33656,1.69753 0.18824,1.21323 -0.0193,2.24466 -0.66884,3.32457 -0.93832,1.55993 -1.40301,2.45025 -1.71726,3.29013 -0.49573,1.32497 -2.24756,3.85524 -3.39219,4.89953 -0.54058,0.4932 -1.39519,1.26824 -1.89911,1.72233 -0.50393,0.45408 -1.14253,1.0579 -1.41912,1.34183 -0.27658,0.28392 -0.79954,0.65982 -1.16213,0.83535 -1.95749,0.94761 -0.99502,1.62096 2.70324,1.8912 2.8092,0.20527 3.28655,0.18995 4.61638,-0.14813 z M 26.501695,164.23509 c 0.95042,-0.57537 1.835258,-1.13723 1.966307,-1.24859 0.131049,-0.11136 0.774382,-0.51032 1.429629,-0.88658 2.141864,-1.22992 2.636559,-1.74943 1.89113,-1.98602 -0.219805,-0.0698 -0.637634,0.0537 -1.231069,0.36378 -2.736554,1.42987 -3.711816,2.02025 -4.77255,2.88904 -0.645594,0.52878 -1.232802,0.96141 -1.304904,0.96141 -0.195718,0 -0.489218,0.6184 -0.378516,0.79752 0.198011,0.32039 0.719041,0.12705 2.399973,-0.89056 z m 121.329765,0.67633 c 0.59212,-0.43297 0.24746,-1.53638 -0.4799,-1.53638 -0.63859,0 -0.94205,1.00699 -0.45134,1.49771 0.30498,0.30498 0.55297,0.31527 0.93124,0.0386 z M 71.122388,164.3275 c 0.718998,-0.67049 -0.334639,-4.203 -1.349713,-4.52517 -0.369119,-0.11715 -0.366039,-0.10193 -0.325798,-1.61 0.0725,-2.71713 -3.013201,-4.48152 -3.576193,-2.04486 -0.363985,1.57536 -1.968038,3.89177 -2.694937,3.89177 -0.365953,0 -0.282561,0.28105 0.171708,0.5787 0.369096,0.24184 0.569024,0.24893 2.025307,0.0718 3.26826,-0.39743 3.125034,-0.39422 3.122952,-0.0702 -0.0013,0.19345 -0.325717,0.47119 -0.953086,0.8158 -1.071668,0.58865 -1.22493,1.07653 -0.691386,2.20088 0.568463,1.19795 3.260557,1.63363 4.271146,0.69123 z m 88.773342,-0.30998 c 0.90041,-0.34234 1.0773,-1.41462 0.27535,-1.66915 -0.85273,-0.27064 -1.64344,0.73543 -1.11049,1.41297 0.36923,0.46941 0.3167,0.45329 0.83514,0.25618 z m 4.96067,-0.22033 c 0.77488,-0.66653 0.13652,-1.16086 -0.96048,-0.74378 -0.39255,0.14924 -0.56954,0.742 -0.30157,1.00997 0.22255,0.22255 0.84697,0.0908 1.26205,-0.26619 z m -9.46599,-0.34437 c 0.71603,-0.37028 0.89046,-0.82155 0.51357,-1.32869 -0.60954,-0.82019 -2.10523,-0.4118 -2.10523,0.57483 0,0.86915 0.71439,1.20751 1.59166,0.75386 z M 24.431768,163.13723 c 0.410303,-0.21816 1.039547,-0.63176 1.398322,-0.91911 0.358775,-0.28735 0.866761,-0.65442 1.12886,-0.81571 2.20771,-1.35854 3.09677,-2.81417 1.019357,-1.66896 -0.47328,0.26091 -1.164567,0.61272 -1.536193,0.78181 -1.336621,0.60814 -3.533778,2.25788 -3.533778,2.65333 0,0.49613 0.552756,0.48475 1.523432,-0.0314 z m 126.352282,-0.18042 c 0.68894,-0.45591 0.80337,-0.87642 0.3691,-1.3563 -0.69693,-0.7701 -2.30733,0.51287 -1.81005,1.44204 0.23821,0.44508 0.6784,0.41889 1.44095,-0.0857 z m -68.228438,-1.33084 c 4.09744,-2.76781 6.733852,-2.94518 8.994332,-0.60511 0.973347,1.00762 2.174933,1.26692 3.284534,0.7088 0.93259,-0.46909 3.337236,-0.93244 4.527226,-0.87235 1.119466,0.0565 1.280636,0.11647 2.270276,0.84421 0.35102,0.25813 0.45069,-0.0387 0.41372,-1.23233 -0.0195,-0.62962 0.10227,-1.89296 0.27059,-2.80743 0.536,-2.91196 -0.293,-3.59725 -3.278626,-2.71029 -2.214127,0.65777 -3.556656,0.53137 -4.958548,-0.46688 -0.874804,-0.62291 -2.577977,-0.88252 -3.821192,-0.58246 -0.591893,0.14287 -1.208905,0.26076 -1.371136,0.26199 -0.162232,0.001 -0.817658,0.28714 -1.456502,0.63538 -0.638845,0.34824 -1.246438,0.63364 -1.350205,0.63423 -1.416954,0.008 -5.257844,4.03254 -5.328253,5.58296 -0.07279,1.60289 0.0091,1.8521 0.495243,1.5061 0.195501,-0.13917 0.784344,-0.54273 1.308541,-0.89682 z m 81.149698,0.30791 c 0.6379,-0.50177 0.36838,-1.57694 -0.39531,-1.57694 -0.48232,0 -1.41002,0.77534 -1.41002,1.17844 0,0.76557 1.04533,0.99632 1.80533,0.3985 z M 48.490975,161.54146 c 0.370491,-0.30954 0.804504,-0.63284 0.964473,-0.71845 0.516952,-0.27666 0.603514,-0.65183 0.363709,-1.5763 -0.703179,-2.71083 0.263909,-4.54409 2.748621,-5.21042 1.693676,-0.4542 1.867789,-0.61064 2.170246,-1.94996 0.410125,-1.81609 0.407393,-1.82453 -0.762923,-2.35517 -1.939333,-0.87934 -2.10749,-3.17098 -0.466484,-6.35717 0.232832,-0.45207 0.02637,-0.96542 -0.637804,-1.58587 -1.09442,-1.02236 -1.06863,-3.01667 0.06157,-4.76087 0.612692,-0.94554 1.067698,-1.16249 3.376943,-1.61013 1.95077,-0.37816 1.986854,-0.41138 2.356552,-2.16893 0.769354,-3.65753 -0.364524,-7.01629 -2.002421,-5.93156 -0.669277,0.44325 -1.053122,0.3964 -1.626998,-0.19856 -1.23371,-1.27903 -0.805536,-2.35279 0.670099,-1.68044 0.348421,0.15875 0.477347,0.13493 0.879682,-0.16253 0.963544,-0.71238 2.517102,-0.19841 2.543628,0.84151 0.01175,0.46073 0.928896,1.28184 1.162958,1.04118 0.214238,-0.22029 1.056635,-2.17349 1.056635,-2.44993 0,-0.0669 0.382188,-0.91912 0.849304,-1.89372 0.467117,-0.97459 1.015818,-2.12436 1.219335,-2.55504 1.200221,-2.53987 5.483135,-7.73773 7.779913,-9.4419 0.305781,-0.22689 0.949114,-0.74171 1.429628,-1.14404 1.015478,-0.85025 2.133371,-1.60514 3.070844,-2.07365 0.364141,-0.18199 1.074797,-0.65116 1.579237,-1.04261 1.247327,-0.96793 3.3681,-1.66492 5.039623,-1.65625 0.655246,0.004 1.439785,-0.0734 1.743421,-0.17066 0.303635,-0.0973 1.475983,-0.21959 2.605217,-0.27183 2.069887,-0.0958 2.54919,-0.50954 2.635076,-2.27473 0.0081,-0.16704 -1.697425,-1.2477 -3.063649,-1.94116 -1.105203,-0.560973 -1.227738,-0.58913 -1.920663,-0.441342 -0.469872,0.100217 -0.95556,0.103616 -1.330061,0.0093 -0.974864,-0.245461 -5.430239,-0.16706 -6.575684,0.115721 -1.439428,0.355351 -2.846945,0.824881 -3.555108,1.185921 -0.337217,0.17192 -0.712743,0.31259 -0.834502,0.31259 -0.121757,0 -0.941732,0.4308 -1.822166,0.95733 -0.880432,0.52654 -1.768082,0.99933 -1.972553,1.05065 -0.204472,0.0513 -0.566697,0.30581 -0.804945,0.56553 -0.238247,0.25972 -0.908759,0.78957 -1.490025,1.17745 -0.581268,0.38787 -1.09509,0.80487 -1.141831,0.92668 -0.04674,0.1218 -0.500418,0.50467 -1.008171,0.85082 -0.908274,0.6192 -2.401622,2.10537 -3.273266,3.25754 -0.244149,0.32272 -0.726018,0.73068 -1.070819,0.90659 -0.436094,0.22248 -0.745528,0.54872 -1.016614,1.07184 -0.214335,0.41361 -0.858299,1.27359 -1.431031,1.91108 -0.57273,0.63748 -1.041329,1.23549 -1.041329,1.32892 0,0.0934 -0.244359,0.50274 -0.543019,0.9096 -1.010897,1.37712 -2.741077,4.97992 -2.864005,5.9638 -0.06184,0.49496 -0.285559,1.39543 -0.49715,2.00105 -0.601546,1.72176 -0.510986,2.1043 0.660708,2.79097 0.605033,0.35457 0.784237,0.39464 1.107128,0.24752 0.568739,-0.25914 0.865557,-0.0752 0.865557,0.53622 0,1.06464 -1.252592,1.47572 -2.34749,0.77042 -0.56295,-0.36264 -0.67694,-0.13454 -0.387954,0.77633 0.804731,2.53648 0.09054,6.59133 -1.31155,7.44636 -2.024247,1.23445 -3.826199,-0.78612 -4.300336,-4.82205 -0.106506,-0.9066 -0.106506,-0.9066 -0.661994,-0.87367 -0.932075,0.0553 -1.218112,-0.50132 -1.315168,-2.55917 -0.107718,-2.28391 -0.387142,-2.60395 -1.051371,-1.20419 -0.534327,1.12602 -1.566322,0.83949 -2.268324,-0.62977 -0.465725,-0.97476 -0.465725,-0.97476 -0.785897,-0.25994 -0.651531,1.45461 -0.279708,6.68964 0.595359,8.3823 0.258833,0.50066 0.656839,1.2976 0.88446,1.77099 0.441744,0.91871 1.672619,2.70104 1.870645,2.70874 0.06552,0.002 0.119135,-0.71248 0.119135,-1.58895 0,-1.68088 0.261953,-2.6953 0.696006,-2.6953 0.342853,0 0.453637,0.51655 0.327426,1.5267 -0.07727,0.61842 -0.03573,1.16046 0.136822,1.78539 0.136274,0.49355 0.371473,1.39774 0.522662,2.0093 0.436203,1.76445 1.883714,2.97025 2.288275,1.90617 0.223979,-0.58911 0.42133,-0.48648 0.704626,0.36644 0.195055,0.58727 0.437793,0.90402 1.051288,1.37188 1.731975,1.32082 -0.03648,1.37081 -2.580508,0.0729 -2.542867,-1.29727 -5.48806,-4.65911 -6.40493,-7.31101 -0.132219,-0.38242 -0.432886,-1.05271 -0.668148,-1.48954 -0.235263,-0.43683 -0.481733,-1.11591 -0.547712,-1.50905 -0.06597,-0.39315 -0.195479,-1.1437 -0.287782,-1.6679 -0.322082,-1.82915 -0.472764,-3.70275 -0.404003,-5.02345 0.07602,-1.46013 -0.04548,-1.34918 -0.456501,0.41686 -0.369463,1.58747 -0.564405,3.18366 -0.464218,3.80103 0.164207,1.01188 -0.76583,1.47421 -1.561928,0.77642 -0.806719,-0.70709 -0.391313,0.71824 0.647121,2.2204 1.191133,1.72303 1.059599,2.23598 -0.550629,2.14734 -1.689224,-0.093 -1.630841,0.68595 0.121285,1.61819 1.842216,0.98016 2.176318,1.49086 1.462642,2.23578 -0.807508,0.84285 -0.09143,1.57656 1.538704,1.57656 2.711817,0 4.142528,3.63803 1.921598,4.88627 -1.13225,0.63636 -2.530224,0.44107 -6.405612,-0.89483 -1.92547,-0.66374 -3.088282,-1.52297 -3.686986,-2.72441 -0.398205,-0.7991 -0.40007,-0.80037 -0.650447,-0.44291 -0.322386,0.46028 -0.318014,0.52581 0.0915,1.37177 0.502039,1.03707 0.316224,1.23326 -1.106222,1.16797 -1.625868,-0.0746 -1.963008,0.58072 -0.592398,1.1515 1.854472,0.77227 1.699414,1.50485 -0.591043,2.79236 -2.093461,1.17677 -2.267337,1.49889 -0.875416,1.62183 2.277687,0.20116 2.595623,0.87657 1.319507,2.8031 -1.29911,1.96124 -1.20706,2.23262 0.519342,1.53112 1.248826,-0.50744 2.550365,-0.54226 2.969223,-0.0794 0.179366,0.1982 0.489246,0.31769 0.823843,0.31769 0.774741,0 0.830654,0.35593 0.236065,1.50273 -0.71485,1.37876 -0.770614,1.2991 1.386222,1.98024 1.086191,0.34303 2.103179,0.12335 5.734522,-1.23872 0.480515,-0.18024 1.055325,-0.33004 1.277359,-0.33289 0.369019,-0.005 0.426679,-0.10311 0.671244,-1.1452 0.381826,-1.62697 0.383039,-1.62623 -3.045234,-1.86445 -2.103357,-0.14615 -2.619001,-0.3252 -4.515605,-1.56799 -1.093688,-0.71666 -1.498942,-1.23472 -1.323501,-1.6919 0.138944,-0.36209 0.650176,-0.30405 1.169273,0.13275 1.548624,1.30308 3.743064,2.07994 5.58182,1.97604 1.459393,-0.0825 1.510031,-0.16994 0.57343,-0.99059 -0.945165,-0.82816 -2.025022,-2.35039 -1.949256,-2.74778 0.107797,-0.5654 0.679529,-0.4123 1.423058,0.38108 2.319271,2.47476 4.582427,3.62497 5.614782,2.85361 0.303733,-0.22694 0.283456,-0.26536 -0.575616,-1.09079 -0.991776,-0.95294 -1.634422,-2.04408 -1.483664,-2.51908 0.13967,-0.44006 0.627738,-0.38142 0.952656,0.11447 1.915493,2.92342 4.172515,3.50343 5.443678,1.39893 0.647911,-1.07266 1.310944,-1.0806 1.299631,-0.0156 -0.01527,1.43777 -3.719252,3.75318 -6.003965,3.75318 -0.70293,0 -1.289526,0.5777 -1.861854,1.83359 -0.349598,0.76714 -0.628099,1.16846 -0.851384,1.22685 -0.265033,0.0693 -0.331833,0.21157 -0.331833,0.70667 0,0.42827 -0.174186,0.90916 -0.563452,1.5556 -0.848915,1.40976 -0.821578,1.59767 0.224172,1.54094 1.26654,-0.0687 3.87728,-1.5416 5.258556,-2.96672 0.896771,-0.92523 1.912153,-0.65455 1.359129,0.36232 -0.330082,0.60693 -0.734076,1.06139 -1.211545,1.3629 -0.720253,0.4548 -1.049366,1.25116 -0.722958,1.74932 0.373408,0.56989 0.893095,0.52383 1.700481,-0.15072 z m -25.376191,0.1421 c 0.279602,-0.14402 1.616328,-0.98645 2.970505,-1.87206 2.606001,-1.70429 3.023452,-1.91708 4.075025,-2.07724 0.720094,-0.10967 1.961184,-1.03412 1.961184,-1.46084 0,-0.85344 -3.173689,0.28169 -5.247576,1.87691 -0.308863,0.23757 -0.880714,0.60321 -1.270781,0.81254 -1.954227,1.04869 -3.660603,2.13696 -3.739253,2.38476 -0.198824,0.62644 0.38336,0.78278 1.250896,0.33593 z m 135.181856,0.0831 c 1.07292,-0.55259 1.30578,-1.18022 0.67274,-1.81325 -0.93747,-0.93747 -2.50563,0.59891 -1.60414,1.57164 0.44418,0.47929 0.46131,0.48373 0.9314,0.24161 z m -4.26514,-0.632 c 1.24575,-1.09378 0.36636,-2.29097 -1.0864,-1.47901 -0.86184,0.48169 -0.96628,0.96076 -0.34493,1.58211 0.5095,0.50951 0.75364,0.49192 1.43133,-0.1031 z m 15.76516,-0.85914 c 0.45524,-0.45526 0.52254,-0.60054 0.36568,-0.78954 -0.40053,-0.48262 -1.72242,0.50184 -1.48936,1.10918 0.14767,0.38483 0.52714,0.27689 1.12368,-0.31964 z m -3.4843,-0.007 c 0.48004,-0.33624 0.44956,-0.92452 -0.069,-1.33247 -0.80773,-0.63535 -1.59594,0.5148 -0.85831,1.25243 0.39257,0.39257 0.47145,0.39938 0.92736,0.08 z M 22.494217,159.55886 c 1.226461,-0.5561 2.637986,-1.5253 2.637986,-1.81134 0,-0.59104 -0.715784,-0.33216 -2.322072,0.83982 -0.615491,0.44909 -1.200079,0.81651 -1.299084,0.81651 -0.09901,0 -0.25652,0.14296 -0.350034,0.31769 -0.242314,0.45277 0.0562,0.41635 1.333204,-0.16268 z m 139.509543,0.015 c 0.77016,-0.3497 0.9848,-0.81322 0.62844,-1.35709 -0.63465,-0.9686 -2.47776,-0.23211 -2.16328,0.86442 0.26435,0.92172 0.45507,0.98295 1.53484,0.49267 z m -99.383522,-0.0784 c 0,-0.12434 0.178946,-0.43875 0.39766,-0.69867 2.076596,-2.4679 1.278271,-4.59986 -1.770169,-4.7273 -2.892705,-0.12094 -2.392561,-1.15279 0.686381,-1.41608 1.463142,-0.12512 1.631147,-0.27397 1.222217,-1.08287 -0.685358,-1.3557 -1.514719,-1.98906 -2.929354,-2.23707 -0.652612,-0.11441 -3.669551,1.23657 -3.857978,1.7276 -0.516122,1.34499 0.04374,2.81344 1.28133,3.36076 0.461932,0.20428 0.839608,0.46169 0.839281,0.572 -9.76e-4,0.33457 -0.595105,1.19974 -1.010994,1.47224 -1.023049,0.67032 -0.462522,2.14963 1.091012,2.87932 0.971905,0.4565 4.050614,0.57057 4.050614,0.15007 z m 94.480092,-0.30827 c 1.65011,-1.04167 1.01142,-2.59327 -0.66344,-1.61175 -0.84753,0.4967 -1.05656,0.99583 -0.6664,1.5913 0.3229,0.49279 0.57544,0.49667 1.32984,0.0204 z m -4.73296,-0.49724 c 1.05111,-0.54356 1.09461,-1.82766 0.0619,-1.82766 -1.01199,0 -1.61524,0.95302 -1.08366,1.71198 0.29202,0.4169 0.41281,0.43057 1.02176,0.11568 z m 16.72208,-0.16619 c 0.50425,-0.46757 0.53459,-0.65299 0.17232,-1.05328 -0.53385,-0.5899 -1.64328,-0.15794 -1.64328,0.63982 0,0.87535 0.74654,1.08518 1.47096,0.41346 z m -21.24749,-0.055 c 1.03108,-0.59827 1.28127,-2.24183 0.34127,-2.24183 -0.27624,0 -1.70014,0.94969 -1.79516,1.19731 -0.32671,0.8514 0.61757,1.5298 1.45389,1.04452 z m 17.33438,-0.86852 c 0.41384,-0.35597 0.42447,-0.40004 0.22051,-0.91338 -0.42865,-1.07878 -0.75144,-1.19123 -1.46287,-0.50964 -1.04941,1.0054 0.14172,2.36974 1.24236,1.42302 z m -21.41676,-0.1343 c 0.49573,-0.49573 -0.15979,-1.6551 -0.73205,-1.29473 -0.37521,0.23627 -0.41901,0.63867 -0.11933,1.09604 0.27986,0.42712 0.55803,0.49204 0.85138,0.19869 z m 16.52047,-0.34909 c 1.00742,-0.52095 1.23832,-1.47483 0.43191,-1.78428 -0.38251,-0.14678 -1.67124,0.69151 -1.67124,1.08711 0,0.73582 0.55781,1.04961 1.23933,0.69717 z m 12.14358,-0.80652 c 0.83106,-0.78753 0.41637,-1.2526 -0.71513,-0.80201 -1.2033,0.47919 -1.43805,0.82902 -0.91037,1.35669 0.36913,0.36913 0.80901,0.21902 1.6255,-0.55468 z m -16.4296,0.14249 c 1.36207,-1.16588 0.67434,-2.28324 -0.90424,-1.4691 -1.19995,0.61886 -1.26968,0.74497 -0.81699,1.47745 0.4476,0.72423 0.86775,0.7222 1.72123,-0.008 z m -4.30944,-0.96232 c 0.21446,-0.55888 -0.39667,-1.37415 -0.94995,-1.26728 -0.97686,0.18868 -1.3211,1.00108 -0.73819,1.74213 0.35483,0.45109 1.45115,0.14272 1.68814,-0.47485 z m 16.17776,0.63874 c 0.4283,-0.28064 0.5087,-0.81252 0.20891,-1.38209 -0.54039,-1.02666 -1.72355,-0.66707 -1.72355,0.52383 0,1.02888 0.67259,1.40999 1.51464,0.85826 z m -20.97642,-0.62564 c 0.69214,-0.52792 0.77318,-0.77977 0.46197,-1.43561 -0.35589,-0.74998 -0.9542,-0.73907 -1.80877,0.0329 -1.52453,1.37733 -0.29663,2.65613 1.3468,1.40263 z m 16.60571,-0.46967 c 0.81711,-0.42255 0.98072,-1.21654 0.29549,-1.43402 -0.76042,-0.24135 -1.71962,0.87193 -1.2445,1.4444 0.23981,0.28897 0.37294,0.28751 0.94901,-0.0104 z m -20.97612,-0.59962 c -0.0122,-0.84437 -0.93995,-1.21336 -1.49865,-0.59601 -0.36547,0.40384 -0.21823,0.75938 0.42681,1.0306 0.62404,0.26238 1.07919,0.0778 1.07184,-0.43459 z m 16.98495,-0.0979 c 0.65651,-0.61329 0.39891,-1.76302 -0.39501,-1.76302 -0.33132,0 -1.49093,0.76234 -1.51318,0.99478 -0.11254,1.17538 0.995,1.62127 1.90819,0.76824 z m 11.33979,0.2445 c 0.97108,-0.41102 1.19218,-0.81663 0.81911,-1.50262 -0.61965,-1.13933 -2.4524,-0.55217 -2.4524,0.78567 0,0.89057 0.6004,1.15412 1.63329,0.71695 z m -16.36368,-0.70882 c 1.41651,-0.9266 0.7609,-2.30004 -0.73553,-1.54083 -1.35899,0.68948 -1.52931,1.05227 -0.82478,1.7568 0.43119,0.43119 0.60849,0.40665 1.56031,-0.21597 z m -86.693795,-0.12365 c 1.786282,-0.13959 1.984901,-0.47476 1.325582,-2.23695 -0.56818,-1.51859 -1.455353,-2.31813 -2.561188,-2.30819 -1.506452,0.0135 -2.250159,0.68101 -1.870732,1.67898 0.09221,0.24254 0.167657,0.85557 0.167657,1.36229 0,1.21223 0.431167,1.83453 1.174696,1.69544 0.271263,-0.0507 1.065055,-0.13695 1.763985,-0.19157 z m 81.994825,-0.24969 c 0.84732,-0.79602 0.20434,-1.94191 -0.85302,-1.52018 -0.83392,0.33261 -0.97127,0.61089 -0.64215,1.30104 0.32239,0.67607 0.91616,0.76309 1.49517,0.21914 z m -5.14187,-0.15057 c 1.17487,-0.6036 1.53203,-1.53884 0.83702,-2.19176 -0.45709,-0.42941 -2.15795,0.58937 -2.15795,1.29257 0,0.71482 0.7225,1.20664 1.32093,0.89919 z m 22.18292,-0.28784 c 0.38846,-0.72584 -0.0632,-1.14252 -0.84981,-0.7841 -0.39556,0.18023 -0.56743,0.7275 -0.30948,0.98545 0.23188,0.23188 0.99872,0.0987 1.15929,-0.20135 z m -4.30713,-0.32914 c 1.37012,-0.9925 0.35851,-2.41132 -1.24553,-1.74691 -0.83963,0.34779 -0.45341,2.08764 0.49101,2.21191 0.0524,0.007 0.39195,-0.20235 0.75452,-0.465 z m 12.19665,-0.1708 c 1.21037,-0.74806 0.17194,-2.24519 -1.12752,-1.62553 -0.47908,0.22846 -0.56135,0.3464 -0.56135,0.80468 0,1.15452 0.64318,1.46712 1.68887,0.82085 z m -34.10142,-0.29139 c 1.02079,-0.84638 0.0455,-2.229 -1.11296,-1.57788 -0.78514,0.44128 -0.85344,0.64991 -0.46319,1.41487 0.3911,0.7666 0.79749,0.80864 1.57615,0.16301 z m -4.90041,-0.37589 c 0.66989,-0.44996 0.7407,-0.93782 0.25863,-1.7819 -0.45761,-0.80129 -0.82751,-0.85529 -1.67139,-0.24399 -1.46552,1.06161 -0.0894,3.0349 1.41276,2.02589 z m 22.30442,-0.13656 c 0.80011,-0.47208 0.84947,-1.31128 0.10069,-1.71202 -0.5346,-0.28611 -1.93,0.50332 -1.93,1.09188 0,1.05098 0.69803,1.28761 1.82931,0.62014 z m -5.08568,-0.29145 c 1.67878,-1.17697 0.33187,-2.48589 -1.38732,-1.34819 -0.68,0.45 -0.73185,0.72633 -0.27649,1.47323 0.37296,0.61173 0.6417,0.59154 1.66381,-0.12504 z m 16.86359,-0.0898 c 0.75174,-0.44054 0.73114,-0.41364 0.59265,-0.77455 -0.22967,-0.5985 -1.9686,-0.0418 -1.9686,0.63017 0,0.67745 0.39553,0.71895 1.37595,0.14438 z m -21.15936,-0.94311 c 0.155,-0.42095 -0.26158,-1.51233 -0.57725,-1.51233 -0.51769,0 -1.40131,0.82896 -1.39903,1.31248 0.006,1.32461 1.50625,1.4763 1.97628,0.19985 z m 17.04766,0.46425 c 0.8249,-0.57778 -0.14813,-2.29328 -1.02822,-1.81278 -0.32398,0.17688 -0.4593,0.38575 -0.4961,0.76577 -0.10209,1.05388 0.71411,1.6145 1.52432,1.04701 z m -21.84592,-0.71919 c 0.83867,-0.71884 0.89667,-0.9429 0.43857,-1.69422 -0.63902,-1.04807 -2.81444,0.0766 -2.45804,1.27078 0.3683,1.23402 0.93512,1.35287 2.01947,0.42344 z m -12.97857,0.10003 c 0.48245,-0.48245 0.48653,-0.69017 0.027,-1.37365 -0.84416,-1.25563 -1.86415,-0.32624 -1.71755,1.56499 0.0293,0.3785 1.25996,0.23921 1.69051,-0.19134 z m -59.380212,-1.6845 c 0.710809,-2.82876 0.146916,-4.2806 -1.661853,-4.27871 -1.576537,0.001 -2.104983,1.9594 -0.947997,3.51209 2.023411,2.71545 2.113499,2.74191 2.60985,0.76662 z m 66.968412,1.41916 c 1.0882,-0.56046 1.26019,-1.04024 0.65658,-1.83162 -0.46927,-0.61524 -0.87559,-0.66924 -1.62011,-0.21529 -1.16458,0.71006 -0.24283,2.66823 0.96353,2.04691 z m 22.47601,-0.15227 c 0.84938,-0.2961 0.8129,-1.31233 -0.0614,-1.71069 -0.43197,-0.19683 -1.33803,0.41837 -1.33803,0.9085 0,0.76574 0.56875,1.09176 1.39943,0.80219 z m 12.10893,-0.1488 c 1.38674,-0.70746 0.4247,-1.80987 -1.04393,-1.19624 -0.60965,0.25474 -0.69944,0.59897 -0.30358,1.16412 0.3053,0.43589 0.54487,0.44159 1.34751,0.0321 z m -17.0364,-0.30064 c 1.95377,-1.00734 1.69338,-2.56376 -0.27756,-1.65907 -1.09146,0.50098 -1.32481,0.90987 -0.89426,1.56697 0.31176,0.4758 0.41229,0.48371 1.17182,0.0921 z m 12.72439,-0.31583 c 0.58322,-0.54481 0.59593,-0.63667 0.16412,-1.18563 -0.60583,-0.77019 -2.05344,-0.27505 -1.79504,0.61396 0.31782,1.09355 0.86642,1.28583 1.63092,0.57167 z M 151.45575,148.835 c 1.28087,-0.93974 0.72196,-2.62059 -0.6298,-1.89403 -1.34671,0.72386 -1.54096,1.0833 -1.07373,1.98682 0.32228,0.62323 0.76009,0.59938 1.70353,-0.0928 z m -17.8621,0.0218 c 1.08889,-0.56309 1.02017,-2.31753 -0.0908,-2.31906 -1.41878,-0.002 -1.90543,1.12601 -0.9421,2.18366 0.38169,0.41906 0.46363,0.4298 1.03294,0.1354 z m -76.215383,-0.16678 c 0.480514,-0.12023 1.220636,-0.34138 1.644716,-0.49144 0.995843,-0.35239 2.271084,-0.2408 3.425896,0.29979 0.782353,0.36622 0.9059,0.38334 1.350205,0.18706 0.26898,-0.11882 1.025164,-0.4441 1.680411,-0.72284 1.494228,-0.63564 1.482906,-0.62368 1.209432,-1.2781 -1.032131,-2.4699 -4.431515,-2.7328 -5.950191,-0.46018 -1.081699,1.6187 -1.982063,1.10194 -1.112378,-0.63846 1.098164,-2.19762 -1.068052,-4.1259 -2.901708,-2.58297 -0.428187,0.36029 -0.653045,0.43096 -1.28337,0.40331 -0.984058,-0.0431 -1.156554,0.20675 -1.492451,2.16219 -0.491431,2.86089 0.578684,3.83496 3.429438,3.12164 z m 89.213873,-0.41842 c 0.85724,-0.5298 0.58711,-2.05206 -0.36414,-2.05206 -0.39082,0 -1.16587,0.63404 -1.16587,0.95376 0,0.2515 0.49,1.17025 0.69727,1.30738 0.24184,0.16001 0.23126,0.16266 0.83274,-0.20908 z m 17.33751,-0.23432 c 0.41526,-0.29086 0.44858,-0.58757 0.10461,-0.93156 -0.35332,-0.35331 -1.1812,0.0675 -1.1812,0.60048 0,0.63579 0.44582,0.77289 1.07659,0.33108 z m 12.50195,-0.0693 c 0.56964,-0.21659 0.67011,-0.59591 0.2651,-1.00092 -0.70692,-0.70691 -2.22702,0.33863 -1.59665,1.09818 0.20005,0.24103 0.49925,0.21918 1.33155,-0.0973 z m -34.50671,-0.55951 c 0.9917,-0.77853 1.09403,-1.07236 0.64074,-1.83973 -0.76711,-1.29861 -3.10348,0.30666 -2.40736,1.65404 0.54704,1.05882 0.64174,1.06877 1.76662,0.18569 z m -12.84242,-0.21969 c 0.80618,-0.84148 -0.21718,-1.97729 -1.25633,-1.39439 -0.79484,0.44585 -0.84826,0.72413 -0.25991,1.35396 0.58069,0.62163 0.94998,0.63148 1.51624,0.0405 z m 42.86057,0.0299 c 0.41901,-0.37758 0.49362,-0.81561 0.21212,-1.24523 -0.33408,-0.50986 -0.72509,-0.4923 -1.25057,0.0562 -1.00574,1.04977 -0.0374,2.15854 1.03845,1.18905 z m -12.2932,0.0179 c 0.78528,-0.55003 0.1585,-1.55975 -0.73777,-1.1885 -0.58705,0.24316 -0.71511,0.52425 -0.47698,1.0469 0.20949,0.45978 0.68187,0.51484 1.21475,0.1416 z m -4.67464,-0.5046 c 2.17678,-1.20977 0.95186,-2.52217 -1.37501,-1.47321 -0.86388,0.38944 -0.9784,0.79205 -0.4253,1.4952 0.41534,0.52803 0.81952,0.52309 1.80031,-0.022 z m -17.95629,-0.0475 c 0.99463,-0.78238 -0.2379,-2.31262 -1.37894,-1.71201 -0.68074,0.35831 -0.76357,0.86808 -0.25673,1.57988 0.39914,0.56054 1.0266,0.61122 1.63567,0.13213 z m 12.75731,-0.57084 c 0.88049,-0.60641 1.03724,-0.98657 0.68114,-1.65194 -0.47254,-0.88294 -2.90017,0.3269 -2.57085,1.28123 0.34618,1.00321 0.83276,1.09866 1.88971,0.37071 z m -25.13735,0.1739 c 0.39768,-0.39767 -0.0324,-1.4977 -0.58563,-1.4977 -0.26627,0 -0.91207,0.65747 -0.91207,0.92855 0,0.67986 1.00505,1.0618 1.4977,0.56915 z m 7.56001,-0.64515 c 1.27401,-0.8431 0.11092,-2.60133 -1.25393,-1.89554 -0.91694,0.47417 -1.01265,1.02283 -0.32987,1.89084 0.41852,0.53206 0.78525,0.53315 1.5838,0.005 z m 42.96487,-0.26454 c 1.28452,-0.72748 0.52741,-2.16258 -0.85012,-1.6114 -0.81647,0.32669 -1.03862,0.68078 -0.80786,1.28773 0.30046,0.79028 0.6973,0.86775 1.65798,0.32367 z m -29.90022,-0.19662 c 0.69784,-0.4742 0.68049,-0.39 0.2538,-1.23167 -0.55327,-1.09139 -0.81257,-1.14792 -1.6486,-0.35944 -1.20566,1.13708 0.0146,2.52902 1.3948,1.59111 z m 18.60656,0.0183 c 2.69381,-0.81072 5.27733,-5.64327 5.61242,-10.49817 0.0769,-1.11383 -0.62966,-3.51937 -1.35253,-4.60496 -0.23271,-0.34947 -0.65682,-1.0947 -0.94247,-1.65607 -0.86393,-1.69784 -1.1363,-2.00105 -2.29416,-2.55403 -1.51347,-0.7228 -2.00318,-0.49176 -1.07479,0.50709 0.26892,0.28934 0.78717,1.08677 1.15164,1.77208 0.36449,0.68532 0.78768,1.47161 0.94043,1.74732 0.67092,1.21098 -0.23408,5.76909 -1.08092,5.44413 -0.24563,-0.0942 -0.2611,-0.30727 -0.1604,-2.20758 0.11147,-2.10326 0.11147,-2.10326 -0.3563,-3.05464 -0.25728,-0.52326 -0.52072,-1.12357 -0.58545,-1.33402 -0.41137,-1.33756 -3.60693,-3.98977 -5.24281,-4.35135 -0.61156,-0.13517 -1.43714,-0.3314 -1.83461,-0.43606 -0.64653,-0.17025 -0.79232,-0.15478 -1.38359,0.14687 -0.3635,0.18544 -0.76848,0.33717 -0.89995,0.33717 -1.18825,0 -2.31517,0.83717 -2.31517,1.7199 0,0.31502 -0.11921,0.88491 -0.26491,1.26642 -0.22678,0.59381 -0.23665,0.8039 -0.0686,1.45963 0.1567,0.61138 0.15575,0.95333 -0.005,1.69437 -0.11056,0.51062 -0.20682,1.35729 -0.21393,1.88149 -0.007,0.52419 -0.0707,1.27983 -0.14129,1.67919 -0.19509,1.10346 0.0978,1.97366 0.81928,2.43409 0.32392,0.20672 0.76765,0.56936 0.98607,0.80585 0.21841,0.2365 0.63925,0.53144 0.93521,0.65542 0.82761,0.3467 4.65086,4.31586 4.97654,5.16644 0.0541,0.14138 0.43036,0.46305 0.83606,0.71482 0.40569,0.25176 0.95487,0.63101 1.2204,0.84277 0.40874,0.32598 1.05129,0.54869 1.81538,0.62923 0.0953,0.0101 0.51073,-0.0833 0.92313,-0.2074 z m -2.96291,-3.21964 c -0.19317,-0.0505 -0.27798,-0.23091 -0.27798,-0.59146 0,-0.39926 -0.0915,-0.56052 -0.39712,-0.69977 -0.71973,-0.32792 -0.37307,-1.13078 0.58658,-1.3585 0.69035,-0.16383 1.24017,0.17819 1.24017,0.77145 0,0.32692 0.13488,0.62949 0.38564,0.86507 0.48775,0.45822 0.37591,0.75499 -0.36173,0.95988 -0.60494,0.16803 -0.71721,0.17311 -1.17556,0.0534 z m -1.96834,-2.83041 c -0.0506,-0.13172 0.0232,-0.41513 0.16384,-0.6298 0.31874,-0.48645 0.32902,-0.87802 0.023,-0.87802 -1.37404,0 0.34806,-1.87065 2.58735,-2.81053 1.37221,-0.57595 1.52044,0.30652 0.19145,1.13978 -1.0139,0.6357 -1.63187,1.20966 -1.03707,0.96321 0.65723,-0.27231 1.14026,-0.27395 1.40941,-0.005 0.45255,0.45255 0.0722,1.25875 -0.67092,1.42196 -0.23701,0.0521 -0.75031,0.30653 -1.14067,0.5655 -0.77552,0.51449 -1.38279,0.60707 -1.52644,0.23271 z m -1.97574,-2.71436 c -0.51918,-0.62558 3.86534,-3.57585 5.38108,-3.62084 0.87595,-0.026 0.92466,0.56035 0.082,0.98685 -1.58368,0.80156 -2.44423,1.28524 -2.83877,1.59559 -0.23687,0.18632 -0.51167,0.33877 -0.61065,0.33877 -0.099,0 -0.42888,0.16637 -0.7331,0.36971 -0.78942,0.52765 -1.05884,0.59706 -1.28055,0.32992 z m -1.01835,-1.65019 c -0.13952,-0.22577 0.8795,-1.19027 1.68865,-1.59831 0.38088,-0.19207 1.15714,-0.68887 1.72502,-1.10402 1.6249,-1.18786 2.78968,-1.61065 3.09158,-1.12215 0.13966,0.22598 -0.69008,0.94861 -1.58253,1.37826 -0.43683,0.2103 -1.25887,0.7372 -1.82675,1.1709 -1.69857,1.29723 -2.80161,1.7516 -3.09597,1.27532 z m -0.081,-1.98004 c 0,-0.1266 0.26433,-0.4304 0.58738,-0.6751 0.32307,-0.2447 0.76983,-0.61443 0.9928,-0.82161 0.22298,-0.20719 0.58412,-0.49053 0.80253,-0.62965 0.21842,-0.13912 0.68305,-0.47701 1.03251,-0.75087 1.01009,-0.79154 1.88396,-1.21316 2.39403,-1.15504 0.71672,0.0817 0.56063,0.45426 -0.39774,0.94948 -0.47463,0.24526 -1.11797,0.68764 -1.42963,0.98307 -0.31166,0.29542 -0.67733,0.57532 -0.8126,0.622 -0.13527,0.0467 -0.7224,0.45005 -1.30473,0.89639 -1.05334,0.80735 -1.86455,1.06026 -1.86455,0.58133 z m -0.79424,-1.6462 c 0,-0.26912 0.35134,-0.58757 2.75573,-2.49777 0.95071,-0.75531 2.35416,-1.49887 2.83427,-1.50165 0.88368,-0.005 0.093,0.9827 -1.27403,1.5916 -0.75325,0.33552 -1.60889,0.95919 -2.7604,2.01207 -0.80613,0.73708 -1.55557,0.92774 -1.55557,0.39575 z m -0.10835,-1.87463 c -0.21183,-0.55203 2.44361,-2.58972 3.38744,-2.5994 0.83323,-0.009 0.43187,0.96 -0.52927,1.2772 -0.32175,0.10619 -1.00847,0.50481 -1.52603,0.88582 -1.03773,0.76393 -1.18761,0.81303 -1.33214,0.43638 z m 0.11678,-2.03676 c -0.26694,-0.32164 0.0188,-0.79671 0.76077,-1.26513 2.21049,-1.39542 3.53256,-1.19259 1.6343,0.25073 -1.56902,1.19299 -2.07056,1.40541 -2.39507,1.0144 z m -15.00311,17.37152 c 1.2052,-0.89033 1.31438,-1.62018 0.31078,-2.07745 -0.74715,-0.34043 -2.3128,0.73305 -2.3128,1.58575 0,1.22054 0.76207,1.40772 2.00202,0.4917 z m -12.53643,-0.30576 c 0.21088,-0.42094 -0.0847,-1.21052 -0.51502,-1.37564 -0.53343,-0.20469 -1.44553,0.79521 -1.25964,1.3809 0.27758,0.8746 1.33546,0.87146 1.77466,-0.005 z m 42.8599,0.47376 c 0.82595,-0.31044 1.17651,-1.45161 0.47655,-1.55133 -0.44881,-0.0639 -1.66318,0.76629 -1.77566,1.21395 -0.15877,0.63188 0.24003,0.73544 1.29911,0.33738 z m -16.81762,-0.81306 c 1.21353,-0.59742 1.33818,-1.06314 0.41472,-1.54949 -0.68176,-0.35906 -2.5183,0.68408 -2.32391,1.31996 0.26639,0.87147 0.53872,0.90421 1.90919,0.22953 z m -18.16856,-0.17371 c 0.59331,-0.41108 0.54935,-0.80809 -0.1755,-1.58517 -1.07521,-1.15269 -2.33358,0.0511 -1.42063,1.35905 0.56945,0.8158 0.71525,0.83645 1.59613,0.22612 z m 13.42262,-0.68996 c 0.52093,-0.34073 0.38707,-1.18323 -0.30547,-1.92259 -0.36493,-0.38961 -0.57752,-0.35111 -1.40214,0.25391 -1.85226,1.35898 -0.23502,2.93934 1.70761,1.66868 z m -80.991921,0.19127 c 0.48548,-0.51678 0.356361,-2.39553 -0.197919,-2.87988 -0.680774,-0.59489 -1.038612,-1.22605 -0.949034,-1.67394 0.106504,-0.53252 -0.181493,-0.66082 -0.342764,-0.1527 -0.09192,0.28963 -0.195012,0.30922 -1.162351,0.22097 -2.589855,-0.23629 -4.468905,1.4158 -3.839225,3.37551 0.356508,1.10953 0.461965,1.15912 2.277242,1.07076 1.179833,-0.0574 1.804213,-0.015 2.32725,0.15802 1.030185,0.34085 1.481732,0.31244 1.886801,-0.11874 z M 130.20987,142.837 c 0.74331,-0.42008 0.84195,-0.78849 0.4022,-1.50214 -0.72619,-1.17851 -2.41757,0.3059 -1.75634,1.54141 0.22322,0.4171 0.56409,0.40722 1.35414,-0.0393 z m 13.49531,-0.65281 c 1.14118,-0.95807 0.42317,-2.15049 -0.95447,-1.58512 -0.88977,0.36516 -1.11089,0.64753 -0.96432,1.2315 0.27377,1.09081 0.90265,1.20672 1.91879,0.35362 z m -71.913005,0.34202 c 0.564547,-0.71606 0.324103,-2.89263 -0.405733,-3.67284 -1.300131,-1.38986 -3.079294,-0.93734 -2.306971,0.58676 0.219257,0.43269 0.437948,1.1879 0.485979,1.67826 0.121609,1.24154 0.24495,1.41868 1.03758,1.4901 0.37091,0.0334 0.754982,0.0733 0.853492,0.0885 0.09851,0.0152 0.249555,-0.0616 0.335653,-0.1708 z m 54.037185,-0.21268 c 0.70121,-0.59002 0.60058,-1.49493 -0.16624,-1.49493 -0.73514,0 -1.5946,1.35097 -1.1453,1.80027 0.22939,0.2294 0.8469,0.0856 1.31154,-0.30534 z m 52.29563,-0.19091 c 0.14347,-0.28698 0.44726,-0.80348 0.67509,-1.14777 0.44731,-0.67591 0.53256,-1.11235 0.21571,-1.10429 -0.49942,0.0127 -1.86646,1.63939 -1.86646,2.22093 0,0.82354 0.57044,0.84174 0.97566,0.0311 z m -39.67165,-0.0102 c 0.93573,-0.53165 1.12918,-0.99067 0.73945,-1.75461 -0.43183,-0.84646 -0.96534,-1.11899 -1.47191,-0.75188 -0.19958,0.14463 -0.63093,0.4418 -0.95855,0.66038 -0.65437,0.43657 -0.7134,0.65812 -0.35832,1.34477 0.48955,0.94668 1.03195,1.07937 2.04933,0.50134 z m 13.73961,-0.64765 c 1.9082,-1.12113 0.26738,-2.61826 -1.7446,-1.59183 -0.71759,0.3661 -0.7191,0.37232 -0.31632,1.31197 0.44384,1.03544 0.71275,1.07196 2.06092,0.27986 z m -95.904272,-0.008 c 0.380848,-0.17282 0.893722,-0.31578 1.139724,-0.3177 2.266713,-0.0177 0.929455,-4.14474 -1.403671,-4.33202 -1.397871,-0.11221 -1.606483,-0.0366 -2.066623,0.74852 -0.952915,1.62602 -0.149741,3.71837 1.615756,4.20919 0.01229,0.004 0.333967,-0.13518 0.714814,-0.30799 z m 77.033902,-0.49085 c 0.52693,-0.37521 0.57931,-0.77298 0.18883,-1.43402 -0.52548,-0.88956 -2.08205,-0.16208 -1.86161,0.87004 0.20614,0.96518 0.81912,1.17184 1.67278,0.56398 z m -57.711116,-1.29567 c 1.358566,-1.46982 0.929166,-2.49306 -0.60548,-1.44284 -0.58139,0.39787 -0.625934,0.51202 -0.628591,1.61091 -0.0029,1.19027 -0.02414,1.19316 1.234071,-0.16807 z m 53.224376,0.51125 c 0.73646,-0.53349 0.80836,-0.80295 0.33939,-1.27192 -0.69695,-0.69696 -2.06203,0.52742 -1.51642,1.36012 0.32331,0.49343 0.37998,0.48918 1.17703,-0.0882 z m 17.89939,0.15663 c 1.2644,-0.78143 0.47326,-1.97069 -0.95079,-1.42926 -0.57048,0.21689 -0.80578,0.8843 -0.4846,1.37449 0.30155,0.46022 0.75157,0.47739 1.43539,0.0548 z m -24.36109,-0.25968 c 0.15976,-0.14459 0.29049,-0.39947 0.29049,-0.56641 0,-0.4654 0.28251,-0.89108 0.75923,-1.14396 0.23766,-0.12607 0.94883,-0.68756 1.58035,-1.24775 1.06341,-0.9433 2.964,-2.18741 4.09374,-2.67974 0.67566,-0.29445 2.1906,-1.24479 2.40112,-1.50625 0.10993,-0.13652 0.14822,-0.62698 0.1008,-1.29114 -0.0444,-0.62273 0.0303,-1.7026 0.17857,-2.58004 0.83653,-4.94979 0.31512,-9.7631 -1.47488,-13.61505 -0.44467,-0.9569 -0.80849,-1.81302 -0.80849,-1.90249 0,-0.0895 -0.25019,-0.49035 -0.55597,-0.89082 -0.30578,-0.40046 -0.55596,-0.76742 -0.55596,-0.81545 0,-0.15064 -2.11423,-2.63214 -2.24258,-2.63214 -0.0671,0 -0.53713,-0.37714 -1.04446,-0.83808 -1.75874,-1.59793 -2.2882,-1.8875 -3.99107,-2.18276 -0.55199,-0.0957 -1.69569,-0.42371 -2.54156,-0.72889 -2.31319,-0.83456 -2.29568,-0.83253 -6.67253,-0.77641 -3.96966,0.0509 -4.37085,0.0965 -5.50819,0.62663 -0.2621,0.12216 -0.82911,0.35591 -1.26002,0.51945 -1.23517,0.4688 -0.47166,1.35713 2.41108,2.80524 1.45013,0.72846 3.61051,2.80785 4.14543,3.99004 0.19766,0.43684 0.46102,0.97294 0.58526,1.19136 0.70373,1.23721 1.61048,3.70273 1.98629,5.40082 0.10634,0.48051 0.32277,1.37403 0.48094,1.98559 0.15819,0.61157 0.37972,1.46934 0.49231,1.90617 0.24971,0.96889 0.24444,5.14835 -0.008,6.50222 -0.26649,1.42806 -0.22952,1.62689 0.43823,2.35709 0.83089,0.90858 1.05051,1.38413 1.52514,3.30242 0.47003,1.89966 0.67545,2.17979 2.14962,2.93143 0.56788,0.28955 1.38723,0.8899 1.82077,1.33413 0.8975,0.9196 0.8391,0.89362 1.22454,0.54479 z m 19.74628,-0.2997 c 0.8793,-0.5153 0.96023,-0.753 0.54701,-1.60662 -0.5573,-1.15123 -1.39604,-1.20263 -2.44863,-0.15004 -1.11064,1.11064 0.48646,2.586 1.90162,1.75666 z m -5.4375,-0.95194 c 0.83541,-0.61291 0.92186,-0.93031 0.4253,-1.56158 -0.6072,-0.77193 -2.65251,-0.0381 -2.46781,0.88538 0.26663,1.33312 0.87334,1.53398 2.04251,0.6762 z m 13.89916,-0.32825 c 0.84414,-0.54218 0.18281,-1.07989 -1.10177,-0.89585 -0.87329,0.12511 -1.11138,0.4315 -0.85484,1.10005 0.11405,0.2972 1.38197,0.16488 1.95661,-0.2042 z m -18.94624,-0.0906 c 1.05634,-0.4813 0.46321,-1.7907 -0.60833,-1.34299 -0.63874,0.26688 -0.73359,0.60279 -0.33208,1.17602 0.28393,0.40538 0.3798,0.4224 0.94041,0.16697 z m 13.80199,-0.46084 c 1.12759,-0.88697 -0.43293,-2.79031 -1.61114,-1.96506 -0.42026,0.29436 -0.4401,0.54964 -0.0956,1.22995 0.56885,1.12336 0.98518,1.30268 1.70674,0.73511 z m -81.543874,-0.5045 c 1.173223,-0.59423 1.189436,-2.58017 0.02603,-3.18872 -0.234349,-0.12259 -0.640533,-0.33941 -0.902632,-0.48184 -1.243627,-0.67581 -2.022221,-0.0192 -1.762571,1.48641 0.436003,2.52824 1.014532,3.00702 2.63917,2.18415 z m 76.377884,-0.84674 c 0.52073,-0.35068 0.90698,-0.74785 1.00738,-1.03586 0.21798,-0.62531 0.59984,-0.81277 1.19668,-0.58749 0.53558,0.20216 0.99776,0.0886 0.99776,-0.24519 0,-0.27533 -0.68464,-0.42196 -1.97022,-0.42196 -1.24939,0 -3.27176,0.88473 -3.27176,1.43131 0,0.41774 0.40485,1.21424 0.67176,1.32163 0.38175,0.15359 0.52606,0.10482 1.3684,-0.46244 z m -69.947494,-0.13745 c 0.990987,-0.25756 1.234211,-0.45663 1.605432,-1.314 0.847371,-1.95709 -1.060794,-3.97418 -2.989958,-3.16063 -0.286904,0.12099 -0.735916,0.28348 -0.997803,0.3611 -0.572319,0.16961 -1.168021,1.25266 -1.182365,2.14966 -0.0052,0.32247 -0.08006,0.62999 -0.166458,0.68339 -0.09754,0.0603 -0.06744,0.24447 0.07942,0.48592 0.815686,1.34105 0.653891,1.23459 1.723479,1.134 0.536339,-0.0504 1.404052,-0.2032 1.928249,-0.33944 z m 4.899775,0.15024 c 0.738467,-0.30856 1.740597,-0.30366 2.350018,0.0115 0.674244,0.34866 0.844128,0.23222 1.467674,-1.00597 0.544019,-1.08029 1.32681,-1.92481 3.439599,-3.71085 1.826873,-1.54435 3.728187,-2.16911 4.992956,-1.64066 0.853239,0.35651 0.97663,0.17299 1.101028,-1.63759 0.05847,-0.85101 0.181411,-2.11914 0.273202,-2.81807 0.09179,-0.69893 0.227133,-1.94985 0.300761,-2.77983 0.231485,-2.60949 1.454511,-6.80168 2.837707,-9.72688 0.360453,-0.76229 0.655369,-1.46064 0.655369,-1.55189 0,-0.0913 0.250185,-0.52962 0.555966,-0.97415 0.305782,-0.44453 0.555967,-0.86578 0.555967,-0.93611 0,-0.20919 1.732251,-2.26233 2.317664,-2.74701 0.990279,-0.81987 0.456844,-1.4357 -0.717562,-0.82839 -0.247027,0.12774 -0.999865,0.37984 -1.672971,0.56022 -1.577961,0.42286 -2.838904,1.06555 -3.825234,1.94966 -0.433345,0.38845 -1.017948,0.82455 -1.299116,0.96913 -0.281167,0.14457 -1.272598,0.94127 -2.203181,1.77044 -0.930582,0.82917 -1.749168,1.50758 -1.81908,1.50758 -0.06991,0 -0.610084,0.6612 -1.200383,1.46934 -0.590298,0.80814 -1.197498,1.6123 -1.349329,1.78704 -1.151911,1.32564 -1.405083,1.6536 -1.655439,2.14444 -0.155964,0.30578 -0.398021,0.63831 -0.5379,0.73896 -0.139881,0.10066 -0.404526,0.4938 -0.588098,0.87367 -1.737272,3.5949 -1.987462,4.20006 -2.518353,6.09148 -0.245223,0.87366 -0.650943,2.04512 -0.9016,2.60324 -0.250657,0.55813 -0.45574,1.24608 -0.45574,1.5288 0,0.28271 -0.112525,0.8268 -0.250055,1.20909 -0.15663,0.43538 -0.217254,0.94628 -0.162264,1.36741 0.123799,0.94813 -0.0398,1.5821 -0.536439,2.07873 -0.863368,0.86337 -0.950143,1.418 -0.273044,1.7452 0.464894,0.22466 0.463941,0.2247 1.117877,-0.0485 z m 59.331989,-0.18198 c 0.8784,-0.6314 1.18383,-1.09601 0.97593,-1.48451 -0.38941,-0.72761 -2.06578,0.21735 -2.06578,1.16447 0,0.87427 0.22635,0.94074 1.08985,0.32004 z M 50.283792,135.4195 c 0.699922,-0.83181 0.80578,-4.00371 0.169888,-5.09052 -0.409781,-0.70035 -0.559949,-0.66817 -0.97654,0.20929 -0.280714,0.59127 -0.437654,0.74955 -0.743179,0.74955 -0.93258,0 -1.057436,0.69232 -0.509264,2.82386 0.474286,1.84424 1.212955,2.3134 2.059095,1.30782 z m 98.769788,-1.53481 c 0.11991,-0.14431 0.26414,-0.76978 0.32052,-1.38991 0.0564,-0.62015 0.21572,-2.12827 0.35411,-3.3514 0.41599,-3.67685 0.28877,-6.52878 -0.53851,-12.07242 -0.43407,-2.90873 -1.50613,-5.77249 -2.82571,-7.54822 -0.31274,-0.42084 -0.93018,-1.44816 -1.37207,-2.2829 -0.99383,-1.87735 -3.8243,-4.99915 -5.29536,-5.84038 -0.4999,-0.28588 -1.31211,-0.78746 -1.80491,-1.11463 -0.4928,-0.327175 -1.38632,-0.837106 -1.9856,-1.133186 -0.59927,-0.296072 -1.30403,-0.647483 -1.56613,-0.780907 -0.2621,-0.133417 -0.90737,-0.461991 -1.43396,-0.730161 -0.53854,-0.274271 -1.44198,-0.563259 -2.06501,-0.660556 -0.60919,-0.09514 -1.60798,-0.304777 -2.21954,-0.465871 -1.51603,-0.399343 -6.5988,-0.238317 -8.10123,0.25665 -0.52419,0.172688 -1.63315,0.470989 -2.46434,0.662875 -1.17102,0.270346 -1.66779,0.47276 -2.20651,0.899067 -0.46793,0.370285 -0.8628,0.550171 -1.20768,0.550171 -0.56388,0 -1.98076,0.527214 -2.65032,0.986173 -0.23518,0.161215 -0.66407,0.399225 -0.95308,0.528905 -0.289,0.12969 -0.9901,0.51784 -1.55797,0.86256 -0.56788,0.34473 -1.30405,0.77605 -1.63593,0.95849 -1.17392,0.64534 -1.00723,1.04277 0.33524,0.79933 3.51369,-0.63715 9.2183,-0.24314 11.55285,0.79794 0.35303,0.15744 1.2749,0.39674 2.0486,0.53178 1.67057,0.2916 2.43633,0.65557 3.50457,1.66574 0.43683,0.41309 1.10059,0.95486 1.47501,1.20392 1.28917,0.85755 4.47635,4.75281 4.48448,5.48079 0.001,0.13331 0.21472,0.59979 0.47383,1.03662 0.25912,0.43683 0.47235,0.91044 0.47384,1.05246 0.003,0.25977 0.64386,1.85095 0.98392,2.4419 0.27533,0.47846 0.60686,2.41311 0.60708,3.54253 1e-4,0.57909 0.10071,1.19509 0.23879,1.46211 0.19282,0.37287 0.37773,1.98711 0.40023,3.49399 0.0125,0.83437 -0.55057,3.80433 -0.89041,4.69683 -0.13533,0.35541 -0.22344,0.963 -0.1958,1.3502 0.0576,0.8073 -0.29464,0.75229 4.02144,0.62799 3.1322,-0.0902 7.72003,0.45248 8.57804,1.01467 1.02017,0.66844 2.73649,0.92546 3.11752,0.46685 z m -82.26012,-2.2043 c 1.910212,-1.63641 3.11889,-1.90038 5.070482,-1.10738 1.231655,0.50047 1.37057,0.49677 1.491498,-0.0397 0.102225,-0.45351 0.57702,-2.16228 1.246868,-4.48744 0.427527,-1.48402 1.673007,-4.51465 2.596337,-6.31767 0.545078,-1.06439 0.935466,-1.66252 3.204512,-4.90973 0.438349,-0.62733 1.364108,-1.62807 2.057243,-2.22388 1.264325,-1.08679 1.754298,-1.46731 3.669283,-2.84968 0.56788,-0.40994 1.282694,-0.93336 1.588476,-1.16317 0.305782,-0.22981 0.931244,-0.65499 1.389917,-0.94485 1.464398,-0.92542 1.278831,-1.07062 -1.977842,-1.54764 -0.367043,-0.0537 -1.546487,0.0251 -2.620986,0.17539 -1.0745,0.15024 -2.63271,0.36774 -3.462688,0.48335 -3.233024,0.45035 -8.911394,4.76573 -11.597744,8.81393 -0.376838,0.56789 -1.018406,1.4614 -1.425702,1.9856 -0.407297,0.52419 -1.015175,1.45345 -1.350841,2.06502 -0.335664,0.61156 -0.777139,1.33318 -0.981057,1.60359 -0.203916,0.27041 -0.503781,0.878 -0.666366,1.3502 -0.316077,0.918 -1.473095,3.30021 -1.921428,3.95608 -0.656922,0.96101 -0.942813,4.4769 -0.400626,4.92687 0.332679,0.27611 2.363922,1.24811 2.629834,1.25845 0.13764,0.005 0.795014,-0.45694 1.46083,-1.02733 z m 46.53632,-2.02075 c 0.0392,-0.10921 0.007,-0.87764 -0.0711,-1.70762 -0.0783,-0.82998 -0.0909,-1.97368 -0.028,-2.54156 0.14207,-1.28321 0.10625,-1.64232 -0.25351,-2.54156 -0.2878,-0.71938 -0.52735,-1.79872 -0.71978,-3.24317 -0.0573,-0.42958 -0.20089,-0.92995 -0.31926,-1.11194 -0.11835,-0.18199 -0.43079,-0.91718 -0.69429,-1.63376 -0.57709,-1.56933 -0.83059,-1.96424 -2.8332,-4.41358 -1.34526,-1.64535 -1.70754,-1.98647 -2.66598,-2.5103 -0.61004,-0.33341 -1.28787,-0.77307 -1.50629,-0.97702 -0.21842,-0.20395 -0.57583,-0.42424 -0.79424,-0.48951 -0.21842,-0.0653 -0.74624,-0.30026 -1.17293,-0.52217 -2.13604,-1.11089 -4.691042,-0.0951 -6.316804,2.51133 -0.354218,0.56788 -0.88689,1.4225 -1.183723,1.89915 -0.296832,0.47665 -0.539696,1.02872 -0.539696,1.22682 0,0.1981 -0.134551,0.6659 -0.299001,1.03953 -0.619977,1.40864 -1.008873,2.44476 -1.119503,2.98264 -0.06289,0.30579 -0.190103,0.69894 -0.282694,0.87367 -0.227646,0.42961 -0.840364,2.70172 -0.840364,3.11628 0,0.1831 -0.103946,0.80777 -0.230991,1.38815 -1.007367,4.60194 -0.558996,6.87672 1.210228,6.14001 3.002107,-1.25008 4.029053,-1.44075 5.952912,-1.10525 1.3555,0.23638 2.687436,0.7627 3.400246,1.34361 0.40442,0.3296 0.40442,0.3296 1.50905,-0.19343 0.94649,-0.44815 1.3093,-0.53039 2.53425,-0.57448 2.15131,-0.0774 4.91457,0.35018 5.79795,0.89723 0.61447,0.38053 1.35644,0.45485 1.46679,0.14693 z m 51.66616,-9.07371 c 0.3487,-0.84808 0.46572,-1.86282 0.20321,-1.76209 -0.287,0.11013 -0.91646,1.4003 -0.91646,1.87839 0,0.74819 0.38352,0.68565 0.71325,-0.1163 z m -0.13739,-3.40569 c 1.25042,-1.18901 1.58323,-1.91163 1.10094,-2.39042 -0.30773,-0.30549 -0.43181,-0.18287 -1.58499,1.56633 -1.33667,2.0275 -1.13771,2.36622 0.48405,0.82409 z m -2.09946,-0.6371 c 0.12753,-0.24663 0.34852,-0.54521 0.49109,-0.66354 0.59539,-0.49412 0.85205,-1.58847 0.37254,-1.58847 -0.43961,0 -1.56243,1.62579 -1.5633,2.26357 -7.5e-4,0.5794 0.39747,0.57282 0.69967,-0.0116 z m -0.26457,-2.98593 c 1.48789,-1.9694 1.62933,-2.18304 1.62933,-2.46127 0,-0.3421 -0.4175,-0.50108 -0.79097,-0.30121 -0.27716,0.14833 -2.06829,3.44028 -2.06829,3.80133 0,0.40911 0.37579,0.0917 1.22993,-1.03885 z m -1.13857,-1.89262 c 0.3429,-0.48356 0.78429,-1.0591 0.98086,-1.27896 0.47693,-0.53344 0.48051,-1.05869 0.007,-0.99012 -0.35101,0.0508 -2.03204,2.48468 -2.03204,2.94207 0,0.45271 0.45335,0.16059 1.04444,-0.67299 z m -57.96378,-6.64473 c 0.24695,-0.20669 0.82429,-0.56531 1.28296,-0.79691 0.88724,-0.44802 0.97415,-0.57821 0.59568,-0.8923 -0.38973,-0.32346 -0.28216,-0.56318 0.59568,-1.3274 1.51261,-1.31684 2.08915,-1.71318 3.53436,-2.429651 2.07352,-1.02796 4.05061,-2.442466 4.05061,-2.898019 0,-0.743256 -2.61615,-2.047986 -4.28888,-2.138949 -0.65525,-0.03565 -1.52126,-0.156764 -1.92448,-0.26919 -0.99525,-0.277483 -3.72959,0.450839 -5.22367,1.391392 -3.408726,2.145876 -4.520664,3.758805 -2.813876,4.081668 1.604706,0.303559 3.008156,2.244539 3.214406,4.445569 0.1257,1.3414 0.24702,1.44491 0.97721,0.83379 z m -5.688432,-0.88048 c 2.484022,-0.79501 2.916262,-1.575 1.478806,-2.6685 -0.91082,-0.69287 -1.39776,-0.695 -1.533718,-0.007 -0.22901,1.15936 -0.68364,1.72987 -1.253908,1.57353 -0.0766,-0.021 -0.827158,0.041 -1.667896,0.13767 -1.017982,0.11712 -1.845515,0.12554 -2.477259,0.0252 -1.12391,-0.17846 -1.354652,-0.11614 -1.354652,0.36585 0,1.24362 3.731837,1.55764 6.808627,0.57292 z m -2.237392,-2.3268 c 0.194171,-0.136 0.353044,-0.34264 0.353044,-0.45919 0,-0.11656 0.141387,-0.52352 0.314203,-0.90437 0.172816,-0.38084 0.315779,-0.893598 0.317692,-1.139456 0.0023,-0.245859 0.182197,-0.837695 0.400612,-1.315198 0.218414,-0.477511 0.399575,-0.919683 0.402577,-0.982624 0.003,-0.06296 0.322128,-0.543311 0.70916,-1.067509 0.38705,-0.524197 0.99484,-1.364105 1.35067,-1.866464 0.35583,-0.502351 0.713196,-0.913371 0.794156,-0.913371 0.20546,0 0.95289,-1.130585 0.95289,-1.441358 0,-0.163293 -0.24395,-0.328492 -0.6751,-0.457181 -0.37131,-0.110828 -0.967306,-0.372334 -1.324446,-0.581112 -1.16163,-0.679085 -2.49972,0.194662 -3.407591,2.225057 -0.276075,0.617434 -0.698128,1.374064 -0.937894,1.681401 -2.190623,2.807955 -3.087202,6.634975 -1.69624,7.240345 0.682046,0.29684 2.010093,0.28654 2.446267,-0.019 z m -5.147933,-2.254568 c 0.124135,-0.240253 0.311443,-0.755535 0.416242,-1.145054 0.104798,-0.389527 0.505438,-1.335228 0.890313,-2.101561 1.109334,-2.208818 1.070309,-2.257958 -1.929712,-2.429971 -1.999042,-0.114618 -4.047261,0.187202 -7.219068,1.063779 -0.655246,0.181093 -1.526958,0.421278 -1.937133,0.533758 -0.410178,0.112471 -1.339437,0.592909 -2.06502,1.067636 -0.725584,0.474726 -1.480075,0.946931 -1.676648,1.049347 -1.036146,0.539829 -0.335796,0.759241 1.310433,0.410547 3.677154,-0.778881 9.201273,-0.03662 11.101521,1.491699 0.753732,0.606198 0.824793,0.610038 1.109072,0.05981 z M 103.02633,89.533674 c 0.42031,-0.46443 -0.004,-0.686191 -1.31553,-0.686191 -1.54673,0 -1.930766,0.308199 -0.92743,0.744292 0.76439,0.332237 1.91673,0.302391 2.24296,-0.05809 z"
       id="path861" />
  </g>
</svg>
